<svg xmlns="http://www.w3.org/2000/svg" xmlns:xlink="http://www.w3.org/1999/xlink" width="432" zoomAndPan="magnify" viewBox="0 0 324 98.999996" height="132" preserveAspectRatio="xMidYMid meet" version="1.0"><defs><clipPath id="b2ebee1dfa"><path d="M 28.09375 25.765625 L 67.308594 25.765625 L 67.308594 53.992188 L 28.09375 53.992188 Z M 28.09375 25.765625 " clip-rule="nonzero"/></clipPath><clipPath id="0a2fbc241e"><path d="M 39.417969 41.230469 L 55.683594 41.230469 L 55.683594 69.457031 L 39.417969 69.457031 Z M 39.417969 41.230469 " clip-rule="nonzero"/></clipPath><clipPath id="109de02ad9"><path d="M 33.007812 53.992188 L 62.027344 53.992188 L 62.027344 63.320312 L 33.007812 63.320312 Z M 33.007812 53.992188 " clip-rule="nonzero"/></clipPath><clipPath id="acad39d5e4"><path d="M 49 47 L 68 47 L 68 70 L 49 70 Z M 49 47 " clip-rule="nonzero"/></clipPath><clipPath id="285f268bc1"><path d="M 47.519531 66.609375 L 61.671875 45.476562 L 69.421875 50.667969 L 55.269531 71.800781 Z M 47.519531 66.609375 " clip-rule="nonzero"/></clipPath><clipPath id="53c738e590"><path d="M 50.113281 62.734375 L 59.058594 49.375 C 60.492188 47.234375 63.390625 46.664062 65.53125 48.09375 C 67.671875 49.527344 68.242188 52.425781 66.808594 54.566406 L 57.863281 67.925781 C 56.433594 70.066406 53.535156 70.636719 51.394531 69.203125 C 49.253906 67.769531 48.679688 64.875 50.113281 62.734375 Z M 50.113281 62.734375 " clip-rule="nonzero"/></clipPath><clipPath id="9356fc3e61"><path d="M 27 47 L 46 47 L 46 70 L 27 70 Z M 27 47 " clip-rule="nonzero"/></clipPath><clipPath id="a20007691f"><path d="M 33.355469 45.308594 L 47.527344 66.425781 L 39.78125 71.625 L 25.609375 50.503906 Z M 33.355469 45.308594 " clip-rule="nonzero"/></clipPath><clipPath id="fd7343c638"><path d="M 35.953125 49.179688 L 44.910156 62.53125 C 46.347656 64.667969 45.777344 67.566406 43.636719 69 C 41.5 70.4375 38.601562 69.867188 37.164062 67.726562 L 28.207031 54.378906 C 26.773438 52.238281 27.34375 49.339844 29.480469 47.90625 C 31.621094 46.472656 34.515625 47.042969 35.953125 49.179688 Z M 35.953125 49.179688 " clip-rule="nonzero"/></clipPath><clipPath id="c7e46e9e10"><path d="M 40.976562 67.371094 L 53.613281 67.371094 L 53.613281 71.589844 L 40.976562 71.589844 Z M 40.976562 67.371094 " clip-rule="nonzero"/></clipPath><clipPath id="7ac827d421"><path d="M 40.976562 69.480469 C 40.976562 68.921875 41.199219 68.386719 41.59375 67.988281 C 41.988281 67.59375 42.527344 67.371094 43.085938 67.371094 L 51.496094 67.371094 C 52.054688 67.371094 52.589844 67.59375 52.984375 67.988281 C 53.382812 68.386719 53.605469 68.921875 53.605469 69.480469 C 53.605469 70.039062 53.382812 70.578125 52.984375 70.972656 C 52.589844 71.367188 52.054688 71.589844 51.496094 71.589844 L 43.085938 71.589844 C 42.527344 71.589844 41.988281 71.367188 41.59375 70.972656 C 41.199219 70.578125 40.976562 70.039062 40.976562 69.480469 Z M 40.976562 69.480469 " clip-rule="nonzero"/></clipPath><clipPath id="622dcaa4c2"><path d="M 42.300781 61.066406 L 52.800781 61.066406 L 52.800781 73.703125 L 42.300781 73.703125 Z M 42.300781 61.066406 " clip-rule="nonzero"/></clipPath><clipPath id="c83e7095bd"><path d="M 47.550781 61.066406 C 48.945312 61.066406 50.28125 61.621094 51.265625 62.605469 C 52.25 63.589844 52.800781 64.925781 52.800781 66.316406 L 52.800781 68.445312 C 52.800781 69.835938 52.25 71.171875 51.265625 72.15625 C 50.28125 73.140625 48.945312 73.695312 47.550781 73.695312 C 46.160156 73.695312 44.824219 73.140625 43.839844 72.15625 C 42.851562 71.171875 42.300781 69.835938 42.300781 68.445312 L 42.300781 66.316406 C 42.300781 64.925781 42.851562 63.589844 43.839844 62.605469 C 44.824219 61.621094 46.160156 61.066406 47.550781 61.066406 Z M 47.550781 61.066406 " clip-rule="nonzero"/></clipPath><clipPath id="4d442344ee"><path d="M 26.445312 24.851562 L 68.175781 24.851562 L 68.175781 37.480469 L 26.445312 37.480469 Z M 26.445312 24.851562 " clip-rule="nonzero"/></clipPath><clipPath id="75a7e85770"><path d="M 32.757812 24.851562 L 61.824219 24.851562 C 65.3125 24.851562 68.140625 27.679688 68.140625 31.164062 C 68.140625 34.652344 65.3125 37.480469 61.824219 37.480469 L 32.757812 37.480469 C 29.269531 37.480469 26.445312 34.652344 26.445312 31.164062 C 26.445312 27.679688 29.269531 24.851562 32.757812 24.851562 Z M 32.757812 24.851562 " clip-rule="nonzero"/></clipPath><clipPath id="23eaf00a56"><path d="M 56 27 L 71 27 L 71 56 L 56 56 Z M 56 27 " clip-rule="nonzero"/></clipPath><clipPath id="5361b21f47"><path d="M 70.90625 28.019531 L 68.246094 55.664062 L 55.675781 54.453125 L 58.335938 26.808594 Z M 70.90625 28.019531 " clip-rule="nonzero"/></clipPath><clipPath id="803afed82a"><path d="M 70.300781 34.304688 L 68.851562 49.367188 C 68.515625 52.839844 65.433594 55.382812 61.960938 55.046875 C 58.488281 54.714844 55.945312 51.628906 56.28125 48.15625 L 57.730469 33.09375 C 58.066406 29.621094 61.148438 27.078125 64.621094 27.414062 C 68.09375 27.75 70.636719 30.832031 70.300781 34.304688 Z M 70.300781 34.304688 " clip-rule="nonzero"/></clipPath><clipPath id="d85aed4ca5"><path d="M 24 27 L 39 27 L 39 56 L 24 56 Z M 24 27 " clip-rule="nonzero"/></clipPath><clipPath id="8f765d52de"><path d="M 36.324219 26.734375 L 39.410156 54.335938 L 26.859375 55.738281 L 23.773438 28.136719 Z M 36.324219 26.734375 " clip-rule="nonzero"/></clipPath><clipPath id="477c0b9217"><path d="M 37.027344 33.011719 L 38.707031 48.050781 C 39.09375 51.515625 36.597656 54.640625 33.132812 55.027344 C 29.667969 55.414062 26.546875 52.917969 26.15625 49.453125 L 24.476562 34.414062 C 24.089844 30.949219 26.585938 27.824219 30.050781 27.4375 C 33.515625 27.050781 36.636719 29.542969 37.027344 33.011719 Z M 37.027344 33.011719 " clip-rule="nonzero"/></clipPath><clipPath id="cf1d48d7d2"><path d="M 50 24 L 72 24 L 72 35 L 50 35 Z M 50 24 " clip-rule="nonzero"/></clipPath><clipPath id="4dcedba215"><path d="M 72.183594 26.589844 L 71.441406 34.695312 L 50.035156 32.738281 L 50.777344 24.632812 Z M 72.183594 26.589844 " clip-rule="nonzero"/></clipPath><clipPath id="3f0ba725ab"><path d="M 71.8125 30.644531 C 71.609375 32.882812 69.625 34.53125 67.386719 34.324219 L 54.109375 33.109375 C 51.871094 32.90625 50.222656 30.925781 50.425781 28.6875 C 50.628906 26.449219 52.609375 24.800781 54.847656 25.003906 L 68.128906 26.21875 C 70.367188 26.421875 72.015625 28.402344 71.8125 30.644531 Z M 71.8125 30.644531 " clip-rule="nonzero"/></clipPath><clipPath id="d938017e95"><path d="M 23 24 L 45 24 L 45 35 L 23 35 Z M 23 24 " clip-rule="nonzero"/></clipPath><clipPath id="4570e09193"><path d="M 44.296875 23.664062 L 45.425781 31.722656 L 24.136719 34.699219 L 23.011719 26.636719 Z M 44.296875 23.664062 " clip-rule="nonzero"/></clipPath><clipPath id="e98db208df"><path d="M 44.859375 27.691406 C 45.171875 29.917969 43.621094 31.976562 41.394531 32.285156 L 28.1875 34.132812 C 25.960938 34.445312 23.902344 32.890625 23.589844 30.664062 C 23.28125 28.441406 24.832031 26.382812 27.058594 26.070312 L 40.265625 24.226562 C 42.492188 23.914062 44.550781 25.464844 44.859375 27.691406 Z M 44.859375 27.691406 " clip-rule="nonzero"/></clipPath><clipPath id="be6efebc2c"><path d="M 36.957031 23.660156 L 58.453125 23.660156 L 58.453125 31.800781 L 36.957031 31.800781 Z M 36.957031 23.660156 " clip-rule="nonzero"/></clipPath><clipPath id="c1403d1539"><path d="M 58.453125 27.730469 C 58.453125 29.980469 56.628906 31.800781 54.382812 31.800781 L 41.046875 31.800781 C 38.800781 31.800781 36.976562 29.980469 36.976562 27.730469 C 36.976562 25.484375 38.800781 23.660156 41.046875 23.660156 L 54.382812 23.660156 C 56.628906 23.660156 58.453125 25.484375 58.453125 27.730469 Z M 58.453125 27.730469 " clip-rule="nonzero"/></clipPath><clipPath id="15ba8cf9fe"><path d="M 23.769531 23.65625 L 70.910156 23.65625 L 70.910156 50.238281 L 23.769531 50.238281 Z M 23.769531 23.65625 " clip-rule="nonzero"/></clipPath><clipPath id="bcc95309da"><path d="M 70.910156 36.949219 C 70.910156 40.472656 69.507812 43.855469 67.015625 46.347656 C 64.523438 48.839844 61.144531 50.238281 57.617188 50.238281 L 37.066406 50.238281 C 33.542969 50.238281 30.160156 48.839844 27.667969 46.347656 C 25.175781 43.855469 23.777344 40.472656 23.777344 36.949219 C 23.777344 33.421875 25.175781 30.042969 27.667969 27.550781 C 30.160156 25.058594 33.542969 23.65625 37.066406 23.65625 L 57.617188 23.65625 C 61.144531 23.65625 64.523438 25.058594 67.015625 27.550781 C 69.507812 30.042969 70.910156 33.421875 70.910156 36.949219 Z M 70.910156 36.949219 " clip-rule="nonzero"/></clipPath><clipPath id="a2f983edc2"><path d="M 29.960938 25.765625 L 65.472656 25.765625 L 65.472656 65.714844 L 29.960938 65.714844 Z M 29.960938 25.765625 " clip-rule="nonzero"/></clipPath><clipPath id="5cc57e8937"><path d="M 65.472656 43.523438 L 65.472656 47.941406 C 65.472656 52.652344 63.601562 57.167969 60.273438 60.496094 C 56.941406 63.828125 52.425781 65.699219 47.71875 65.699219 C 43.007812 65.699219 38.492188 63.828125 35.164062 60.496094 C 31.832031 57.167969 29.960938 52.652344 29.960938 47.941406 L 29.960938 43.523438 C 29.960938 38.8125 31.832031 34.296875 35.164062 30.964844 C 38.492188 27.636719 43.007812 25.765625 47.71875 25.765625 C 52.425781 25.765625 56.941406 27.636719 60.273438 30.964844 C 63.601562 34.296875 65.472656 38.8125 65.472656 43.523438 Z M 65.472656 43.523438 " clip-rule="nonzero"/></clipPath><clipPath id="ac66b1feed"><path d="M 23.773438 25.78125 L 29.757812 25.78125 L 29.757812 29.683594 L 23.773438 29.683594 Z M 23.773438 25.78125 " clip-rule="nonzero"/></clipPath><clipPath id="a63f3671b6"><path d="M 29.757812 27.730469 C 29.757812 28.25 29.554688 28.746094 29.1875 29.109375 C 28.824219 29.476562 28.328125 29.683594 27.808594 29.683594 L 25.722656 29.683594 C 25.207031 29.683594 24.710938 29.476562 24.34375 29.109375 C 23.980469 28.746094 23.773438 28.25 23.773438 27.730469 C 23.773438 27.214844 23.980469 26.71875 24.34375 26.351562 C 24.710938 25.988281 25.207031 25.78125 25.722656 25.78125 L 27.808594 25.78125 C 28.328125 25.78125 28.824219 25.988281 29.1875 26.351562 C 29.554688 26.71875 29.757812 27.214844 29.757812 27.730469 Z M 29.757812 27.730469 " clip-rule="nonzero"/></clipPath><clipPath id="d199890125"><path d="M 22.917969 22.933594 L 72.0625 22.933594 L 72.0625 75.882812 L 22.917969 75.882812 Z M 22.917969 22.933594 " clip-rule="nonzero"/></clipPath><clipPath id="0fa18aac67"><path d="M 79.800781 28.429688 L 92 28.429688 L 92 58.433594 L 79.800781 58.433594 Z M 79.800781 28.429688 " clip-rule="nonzero"/></clipPath><clipPath id="6153bad261"><path d="M 177 28.429688 L 203 28.429688 L 203 52 L 177 52 Z M 177 28.429688 " clip-rule="nonzero"/></clipPath><clipPath id="edecffef0b"><path d="M 287 31 L 299.515625 31 L 299.515625 52 L 287 52 Z M 287 31 " clip-rule="nonzero"/></clipPath></defs><g clip-path="url(#b2ebee1dfa)"><path fill="#062f6b" d="M 28.09375 25.765625 L 67.347656 25.765625 L 67.347656 53.992188 L 28.09375 53.992188 Z M 28.09375 25.765625 " fill-opacity="1" fill-rule="nonzero"/></g><g clip-path="url(#0a2fbc241e)"><path fill="#062f6b" d="M 39.417969 41.230469 L 55.683594 41.230469 L 55.683594 69.445312 L 39.417969 69.445312 Z M 39.417969 41.230469 " fill-opacity="1" fill-rule="nonzero"/></g><g clip-path="url(#109de02ad9)"><path fill="#062f6b" d="M 33.007812 53.992188 L 62.011719 53.992188 L 62.011719 63.320312 L 33.007812 63.320312 Z M 33.007812 53.992188 " fill-opacity="1" fill-rule="nonzero"/></g><g clip-path="url(#acad39d5e4)"><g clip-path="url(#285f268bc1)"><g clip-path="url(#53c738e590)"><path fill="#062f6b" d="M 47.519531 66.609375 L 61.648438 45.507812 L 69.402344 50.699219 L 55.269531 71.800781 Z M 47.519531 66.609375 " fill-opacity="1" fill-rule="nonzero"/></g></g></g><g clip-path="url(#9356fc3e61)"><g clip-path="url(#a20007691f)"><g clip-path="url(#fd7343c638)"><path fill="#062f6b" d="M 33.355469 45.308594 L 47.503906 66.394531 L 39.761719 71.59375 L 25.609375 50.503906 Z M 33.355469 45.308594 " fill-opacity="1" fill-rule="nonzero"/></g></g></g><g clip-path="url(#c7e46e9e10)"><g clip-path="url(#7ac827d421)"><path fill="#062f6b" d="M 40.976562 71.589844 L 40.976562 67.371094 L 53.597656 67.371094 L 53.597656 71.589844 Z M 40.976562 71.589844 " fill-opacity="1" fill-rule="nonzero"/></g></g><g clip-path="url(#622dcaa4c2)"><g clip-path="url(#c83e7095bd)"><path fill="#062f6b" d="M 42.300781 61.066406 L 52.800781 61.066406 L 52.800781 73.703125 L 42.300781 73.703125 Z M 42.300781 61.066406 " fill-opacity="1" fill-rule="nonzero"/></g></g><g clip-path="url(#4d442344ee)"><g clip-path="url(#75a7e85770)"><path fill="#062f6b" d="M 26.445312 24.851562 L 68.125 24.851562 L 68.125 37.480469 L 26.445312 37.480469 Z M 26.445312 24.851562 " fill-opacity="1" fill-rule="nonzero"/></g></g><g clip-path="url(#23eaf00a56)"><g clip-path="url(#5361b21f47)"><g clip-path="url(#803afed82a)"><path fill="#062f6b" d="M 70.90625 28.019531 L 68.246094 55.664062 L 55.675781 54.453125 L 58.335938 26.808594 Z M 70.90625 28.019531 " fill-opacity="1" fill-rule="nonzero"/></g></g></g><g clip-path="url(#d85aed4ca5)"><g clip-path="url(#8f765d52de)"><g clip-path="url(#477c0b9217)"><path fill="#062f6b" d="M 36.324219 26.734375 L 39.410156 54.335938 L 26.859375 55.738281 L 23.773438 28.136719 Z M 36.324219 26.734375 " fill-opacity="1" fill-rule="nonzero"/></g></g></g><g clip-path="url(#cf1d48d7d2)"><g clip-path="url(#4dcedba215)"><g clip-path="url(#3f0ba725ab)"><path fill="#062f6b" d="M 72.183594 26.589844 L 71.441406 34.695312 L 50.066406 32.742188 L 50.808594 24.636719 Z M 72.183594 26.589844 " fill-opacity="1" fill-rule="nonzero"/></g></g></g><g clip-path="url(#d938017e95)"><g clip-path="url(#4570e09193)"><g clip-path="url(#e98db208df)"><path fill="#062f6b" d="M 44.296875 23.664062 L 45.425781 31.722656 L 24.167969 34.695312 L 23.042969 26.632812 Z M 44.296875 23.664062 " fill-opacity="1" fill-rule="nonzero"/></g></g></g><g clip-path="url(#be6efebc2c)"><g clip-path="url(#c1403d1539)"><path fill="#062f6b" d="M 58.453125 23.660156 L 58.453125 31.800781 L 36.992188 31.800781 L 36.992188 23.660156 Z M 58.453125 23.660156 " fill-opacity="1" fill-rule="nonzero"/></g></g><g clip-path="url(#15ba8cf9fe)"><g clip-path="url(#bcc95309da)"><path fill="#062f6b" d="M 70.910156 23.65625 L 70.910156 50.238281 L 23.769531 50.238281 L 23.769531 23.65625 Z M 70.910156 23.65625 " fill-opacity="1" fill-rule="nonzero"/></g></g><g clip-path="url(#a2f983edc2)"><g clip-path="url(#5cc57e8937)"><path fill="#062f6b" d="M 65.472656 25.765625 L 65.472656 65.714844 L 29.960938 65.714844 L 29.960938 25.765625 Z M 65.472656 25.765625 " fill-opacity="1" fill-rule="nonzero"/></g></g><g clip-path="url(#ac66b1feed)"><g clip-path="url(#a63f3671b6)"><path fill="#062f6b" d="M 29.757812 25.78125 L 29.757812 29.683594 L 23.773438 29.683594 L 23.773438 25.78125 Z M 29.757812 25.78125 " fill-opacity="1" fill-rule="nonzero"/></g></g><path fill="#ffffff" d="M 120.070312 64.765625 C 120.070312 63.832031 120.042969 62.089844 119.792969 61.636719 C 119.691406 61.460938 119.414062 61.359375 119.035156 61.308594 L 118.65625 61.285156 C 118.554688 61.183594 118.605469 60.980469 118.683594 60.929688 C 119.261719 60.957031 119.816406 60.980469 120.398438 60.980469 C 121.027344 60.980469 121.429688 60.957031 121.984375 60.929688 C 122.113281 61.007812 122.085938 61.207031 122.011719 61.285156 L 121.65625 61.308594 C 121.28125 61.335938 121.003906 61.484375 120.902344 61.664062 C 120.699219 62.167969 120.699219 63.90625 120.699219 64.738281 L 120.699219 66.453125 C 120.699219 67.765625 120.496094 69.152344 119.640625 70.058594 C 118.984375 70.765625 117.875 71.167969 116.742188 71.167969 C 115.707031 71.167969 114.648438 70.964844 113.917969 70.335938 C 113.109375 69.679688 112.730469 68.570312 112.730469 66.757812 L 112.730469 63.175781 C 112.730469 61.613281 112.707031 61.335938 111.824219 61.257812 L 111.445312 61.234375 C 111.34375 61.183594 111.394531 60.90625 111.472656 60.882812 C 112.226562 60.90625 112.730469 60.929688 113.335938 60.929688 C 113.96875 60.929688 114.445312 60.90625 115.203125 60.882812 C 115.304688 60.929688 115.328125 61.183594 115.226562 61.234375 L 114.875 61.257812 C 113.992188 61.335938 113.96875 61.585938 113.96875 63.175781 L 113.96875 66.453125 C 113.96875 68.898438 114.722656 70.488281 117.042969 70.488281 C 119.238281 70.488281 120.070312 68.773438 120.070312 66.453125 Z M 120.070312 64.765625 " fill-opacity="1" fill-rule="nonzero"/><path fill="#ffffff" d="M 139.835938 68.394531 C 139.835938 68.847656 139.835938 70.640625 139.886719 71.042969 C 139.863281 71.144531 139.761719 71.21875 139.609375 71.21875 C 139.433594 70.964844 138.980469 70.4375 137.667969 68.925781 L 134.164062 64.941406 C 133.761719 64.460938 132.726562 63.226562 132.398438 62.898438 L 132.375 62.898438 C 132.324219 63.074219 132.296875 63.425781 132.296875 63.882812 L 132.296875 67.183594 C 132.296875 67.890625 132.324219 69.855469 132.574219 70.3125 C 132.675781 70.488281 132.980469 70.5625 133.355469 70.589844 L 133.835938 70.640625 C 133.9375 70.765625 133.910156 70.941406 133.8125 71.015625 C 133.128906 70.992188 132.601562 70.964844 132.046875 70.964844 C 131.414062 70.964844 131.011719 70.992188 130.484375 71.015625 C 130.382812 70.941406 130.355469 70.738281 130.457031 70.640625 L 130.859375 70.589844 C 131.214844 70.539062 131.441406 70.460938 131.515625 70.285156 C 131.71875 69.757812 131.71875 67.890625 131.71875 67.160156 L 131.71875 62.796875 C 131.71875 62.367188 131.691406 62.066406 131.390625 61.714844 C 131.1875 61.511719 130.808594 61.386719 130.457031 61.359375 L 130.207031 61.335938 C 130.105469 61.234375 130.105469 61.007812 130.230469 60.957031 C 130.859375 61.007812 131.667969 61.007812 131.945312 61.007812 C 132.195312 61.007812 132.449219 60.980469 132.652344 60.957031 C 132.953125 61.738281 134.742188 63.730469 135.246094 64.285156 L 136.710938 65.925781 C 137.742188 67.082031 138.5 67.941406 139.207031 68.671875 L 139.230469 68.671875 C 139.28125 68.597656 139.28125 68.34375 139.28125 68.042969 L 139.28125 64.816406 C 139.28125 64.109375 139.257812 62.140625 138.980469 61.6875 C 138.878906 61.535156 138.652344 61.460938 138.046875 61.386719 L 137.792969 61.359375 C 137.695312 61.257812 137.695312 61.03125 137.820312 60.980469 C 138.527344 61.007812 139.03125 61.03125 139.609375 61.03125 C 140.265625 61.03125 140.644531 61.007812 141.171875 60.980469 C 141.300781 61.058594 141.300781 61.257812 141.199219 61.359375 L 140.996094 61.386719 C 140.519531 61.460938 140.214844 61.585938 140.140625 61.714844 C 139.886719 62.269531 139.914062 64.132812 139.914062 64.839844 L 139.914062 68.394531 Z M 139.835938 68.394531 " fill-opacity="1" fill-rule="nonzero"/><path fill="#ffffff" d="M 151.109375 63.277344 C 151.109375 61.664062 151.082031 61.410156 150.175781 61.335938 L 149.796875 61.308594 C 149.695312 61.257812 149.746094 60.980469 149.820312 60.929688 C 150.578125 60.957031 151.082031 60.980469 151.738281 60.980469 C 152.34375 60.980469 152.847656 60.957031 153.605469 60.929688 C 153.703125 60.980469 153.730469 61.257812 153.628906 61.308594 L 153.25 61.335938 C 152.367188 61.410156 152.316406 61.664062 152.316406 63.277344 L 152.316406 68.671875 C 152.316406 70.285156 152.34375 70.488281 153.25 70.589844 L 153.628906 70.640625 C 153.730469 70.6875 153.679688 70.964844 153.605469 71.015625 C 152.847656 70.992188 152.34375 70.964844 151.738281 70.964844 C 151.109375 70.964844 150.578125 70.992188 149.820312 71.015625 C 149.722656 70.964844 149.695312 70.738281 149.796875 70.640625 L 150.175781 70.589844 C 151.058594 70.488281 151.109375 70.261719 151.109375 68.671875 Z M 151.109375 63.277344 " fill-opacity="1" fill-rule="nonzero"/><path fill="#ffffff" d="M 163.363281 62.570312 C 163.007812 61.714844 162.78125 61.410156 162.125 61.335938 L 161.875 61.308594 C 161.773438 61.207031 161.773438 61.007812 161.898438 60.929688 C 162.328125 60.957031 162.832031 60.980469 163.460938 60.980469 C 164.117188 60.980469 164.648438 60.957031 165.304688 60.929688 C 165.402344 60.980469 165.429688 61.207031 165.328125 61.308594 L 165.101562 61.335938 C 164.519531 61.410156 164.394531 61.511719 164.394531 61.613281 C 164.421875 61.761719 164.671875 62.570312 165.152344 63.730469 C 165.859375 65.496094 166.539062 67.234375 167.292969 68.949219 C 167.75 67.941406 168.40625 66.402344 168.757812 65.597656 C 169.1875 64.5625 169.917969 62.847656 170.167969 62.21875 C 170.296875 61.890625 170.296875 61.738281 170.296875 61.636719 C 170.296875 61.535156 170.144531 61.410156 169.613281 61.359375 L 169.335938 61.335938 C 169.238281 61.234375 169.261719 61.007812 169.363281 60.957031 C 169.792969 60.980469 170.371094 61.007812 170.925781 61.007812 C 171.429688 61.007812 171.882812 60.980469 172.386719 60.957031 C 172.488281 61.007812 172.488281 61.257812 172.414062 61.335938 L 171.960938 61.359375 C 171.605469 61.386719 171.378906 61.5625 171.179688 61.890625 C 170.75 62.59375 170.167969 63.832031 169.488281 65.371094 L 168.683594 67.234375 C 168.078125 68.621094 167.371094 70.386719 167.117188 71.195312 C 167.066406 71.21875 167.015625 71.242188 166.96875 71.242188 C 166.890625 71.242188 166.816406 71.21875 166.738281 71.195312 C 166.5625 70.5625 166.3125 69.808594 166.035156 69.175781 Z M 163.363281 62.570312 " fill-opacity="1" fill-rule="nonzero"/><path fill="#ffffff" d="M 181.566406 63.25 C 181.566406 61.664062 181.539062 61.4375 180.632812 61.335938 L 180.382812 61.308594 C 180.28125 61.257812 180.332031 60.980469 180.40625 60.929688 C 181.0625 60.957031 181.566406 60.980469 182.195312 60.980469 L 185.070312 60.980469 C 186.027344 60.980469 186.9375 60.980469 187.113281 60.929688 C 187.214844 61.183594 187.289062 62.269531 187.367188 62.949219 C 187.316406 63.050781 187.0625 63.074219 186.988281 62.972656 C 186.761719 62.269531 186.632812 61.738281 185.828125 61.535156 C 185.5 61.460938 185.019531 61.4375 184.363281 61.4375 L 183.28125 61.4375 C 182.828125 61.4375 182.828125 61.460938 182.828125 62.039062 L 182.828125 65.066406 C 182.828125 65.496094 182.878906 65.496094 183.332031 65.496094 L 184.214844 65.496094 C 184.84375 65.496094 185.324219 65.46875 185.5 65.394531 C 185.675781 65.34375 185.777344 65.242188 185.851562 64.863281 L 185.976562 64.234375 C 186.054688 64.132812 186.304688 64.132812 186.355469 64.261719 C 186.355469 64.613281 186.304688 65.21875 186.304688 65.796875 C 186.304688 66.351562 186.355469 66.90625 186.355469 67.234375 C 186.304688 67.335938 186.027344 67.335938 185.976562 67.261719 L 185.828125 66.679688 C 185.777344 66.402344 185.675781 66.175781 185.375 66.101562 C 185.171875 66.050781 184.792969 66.023438 184.214844 66.023438 L 183.304688 66.023438 C 182.851562 66.023438 182.800781 66.050781 182.800781 66.429688 L 182.800781 68.570312 C 182.800781 69.378906 182.851562 69.882812 183.078125 70.132812 C 183.253906 70.3125 183.582031 70.488281 184.917969 70.488281 C 186.078125 70.488281 186.535156 70.4375 186.859375 70.261719 C 187.136719 70.109375 187.542969 69.578125 187.945312 68.796875 C 188.046875 68.722656 188.273438 68.773438 188.324219 68.898438 C 188.222656 69.429688 187.84375 70.589844 187.644531 70.992188 C 186.28125 70.964844 184.945312 70.941406 183.582031 70.941406 L 182.222656 70.941406 C 181.566406 70.941406 181.0625 70.964844 180.152344 70.992188 C 180.054688 70.941406 180.027344 70.714844 180.128906 70.613281 L 180.632812 70.5625 C 181.492188 70.488281 181.566406 70.261719 181.566406 68.671875 Z M 181.566406 63.25 " fill-opacity="1" fill-rule="nonzero"/><path fill="#ffffff" d="M 197.980469 63.25 C 197.980469 61.8125 197.929688 61.5625 197.324219 61.484375 L 196.847656 61.4375 C 196.746094 61.359375 196.746094 61.109375 196.871094 61.058594 C 197.703125 60.980469 198.761719 60.929688 200.25 60.929688 C 201.183594 60.929688 202.089844 61.007812 202.769531 61.386719 C 203.503906 61.761719 204.03125 62.445312 204.03125 63.503906 C 204.03125 64.941406 202.898438 65.722656 202.140625 66.023438 C 202.066406 66.125 202.140625 66.277344 202.214844 66.378906 C 203.425781 68.320312 204.234375 69.53125 205.265625 70.410156 C 205.519531 70.640625 205.898438 70.816406 206.300781 70.839844 C 206.375 70.867188 206.402344 70.992188 206.328125 71.042969 C 206.199219 71.09375 205.949219 71.117188 205.671875 71.117188 C 204.382812 71.117188 203.601562 70.738281 202.542969 69.203125 C 202.140625 68.648438 201.535156 67.589844 201.054688 66.90625 C 200.828125 66.578125 200.578125 66.429688 199.972656 66.429688 C 199.292969 66.429688 199.265625 66.453125 199.265625 66.757812 L 199.265625 68.671875 C 199.265625 70.261719 199.292969 70.4375 200.175781 70.5625 L 200.476562 70.613281 C 200.578125 70.6875 200.527344 70.941406 200.453125 70.992188 C 199.769531 70.964844 199.265625 70.941406 198.660156 70.941406 C 198.03125 70.941406 197.476562 70.964844 196.769531 70.992188 C 196.667969 70.941406 196.644531 70.714844 196.746094 70.613281 L 197.125 70.5625 C 198.003906 70.460938 198.03125 70.261719 198.03125 68.671875 L 198.03125 63.25 Z M 199.214844 65.417969 C 199.214844 65.695312 199.214844 65.847656 199.265625 65.925781 C 199.316406 65.972656 199.542969 66 200.300781 66 C 200.855469 66 201.410156 65.949219 201.863281 65.597656 C 202.265625 65.269531 202.621094 64.738281 202.621094 63.730469 C 202.621094 62.546875 201.886719 61.410156 200.199219 61.410156 C 199.265625 61.410156 199.214844 61.460938 199.214844 61.890625 Z M 199.214844 65.417969 " fill-opacity="1" fill-rule="nonzero"/><path fill="#ffffff" d="M 216.261719 71.195312 C 215 71.195312 214.191406 70.789062 213.890625 70.640625 C 213.714844 70.3125 213.511719 69.226562 213.488281 68.519531 C 213.5625 68.421875 213.789062 68.394531 213.839844 68.46875 C 214.066406 69.253906 214.699219 70.714844 216.4375 70.714844 C 217.699219 70.714844 218.328125 69.882812 218.328125 68.976562 C 218.328125 68.320312 218.203125 67.5625 217.09375 66.855469 L 215.65625 65.925781 C 214.898438 65.417969 214.015625 64.5625 214.015625 63.328125 C 214.015625 61.890625 215.125 60.730469 217.09375 60.730469 C 217.570312 60.730469 218.101562 60.832031 218.503906 60.929688 C 218.707031 60.980469 218.90625 61.03125 219.035156 61.03125 C 219.160156 61.386719 219.3125 62.242188 219.3125 62.871094 C 219.261719 62.972656 219.007812 63 218.933594 62.921875 C 218.730469 62.191406 218.328125 61.207031 216.867188 61.207031 C 215.378906 61.207031 215.074219 62.191406 215.074219 62.898438 C 215.074219 63.78125 215.808594 64.410156 216.363281 64.765625 L 217.570312 65.519531 C 218.53125 66.101562 219.460938 66.984375 219.460938 68.421875 C 219.488281 70.058594 218.226562 71.195312 216.261719 71.195312 " fill-opacity="1" fill-rule="nonzero"/><path fill="#ffffff" d="M 229.75 63.277344 C 229.75 61.664062 229.726562 61.410156 228.816406 61.335938 L 228.4375 61.308594 C 228.339844 61.257812 228.386719 60.980469 228.464844 60.929688 C 229.21875 60.957031 229.726562 60.980469 230.378906 60.980469 C 230.984375 60.980469 231.488281 60.957031 232.246094 60.929688 C 232.347656 60.980469 232.371094 61.257812 232.269531 61.308594 L 231.894531 61.335938 C 231.011719 61.410156 230.960938 61.664062 230.960938 63.277344 L 230.960938 68.671875 C 230.960938 70.285156 230.984375 70.488281 231.894531 70.589844 L 232.269531 70.640625 C 232.371094 70.6875 232.320312 70.964844 232.246094 71.015625 C 231.488281 70.992188 230.984375 70.964844 230.378906 70.964844 C 229.75 70.964844 229.21875 70.992188 228.464844 71.015625 C 228.363281 70.964844 228.339844 70.738281 228.4375 70.640625 L 228.816406 70.589844 C 229.699219 70.488281 229.75 70.261719 229.75 68.671875 Z M 229.75 63.277344 " fill-opacity="1" fill-rule="nonzero"/><path fill="#ffffff" d="M 246.542969 68.699219 C 246.542969 70.285156 246.566406 70.511719 247.449219 70.589844 L 247.929688 70.640625 C 248.03125 70.6875 247.980469 70.964844 247.902344 71.015625 C 247.046875 70.992188 246.515625 70.964844 245.914062 70.964844 C 245.308594 70.964844 244.777344 70.992188 243.820312 71.015625 C 243.71875 70.964844 243.691406 70.714844 243.820312 70.640625 L 244.375 70.589844 C 245.230469 70.511719 245.308594 70.285156 245.308594 68.699219 L 245.308594 61.941406 C 245.308594 61.460938 245.308594 61.460938 244.851562 61.460938 L 244.019531 61.460938 C 243.367188 61.460938 242.535156 61.484375 242.15625 61.839844 C 241.800781 62.167969 241.652344 62.496094 241.472656 62.871094 C 241.347656 62.972656 241.148438 62.898438 241.070312 62.773438 C 241.324219 62.089844 241.550781 61.109375 241.652344 60.527344 C 241.703125 60.503906 241.902344 60.476562 241.929688 60.527344 C 242.027344 61.007812 242.507812 61.007812 243.214844 61.007812 L 249.367188 61.007812 C 250.171875 61.007812 250.324219 60.980469 250.550781 60.578125 C 250.628906 60.554688 250.804688 60.554688 250.828125 60.628906 C 250.652344 61.257812 250.550781 62.46875 250.601562 62.921875 C 250.550781 63.050781 250.273438 63.050781 250.199219 62.949219 C 250.148438 62.570312 250.046875 62.015625 249.820312 61.839844 C 249.46875 61.585938 248.886719 61.460938 248.054688 61.460938 L 246.972656 61.460938 C 246.515625 61.460938 246.542969 61.484375 246.542969 61.964844 Z M 246.542969 68.699219 " fill-opacity="1" fill-rule="nonzero"/><path fill="#ffffff" d="M 263.789062 68.671875 C 263.789062 70.285156 263.890625 70.539062 264.695312 70.589844 L 265.277344 70.640625 C 265.351562 70.738281 265.328125 70.964844 265.25 71.015625 C 264.320312 70.992188 263.789062 70.964844 263.183594 70.964844 C 262.554688 70.964844 262 70.992188 261.191406 71.015625 C 261.089844 70.964844 261.066406 70.738281 261.167969 70.640625 L 261.644531 70.589844 C 262.527344 70.488281 262.554688 70.285156 262.554688 68.671875 L 262.554688 67.890625 C 262.554688 67.058594 262.503906 66.855469 262.074219 66.023438 L 260.285156 62.546875 C 259.78125 61.535156 259.554688 61.460938 259.097656 61.386719 L 258.671875 61.308594 C 258.570312 61.207031 258.59375 60.980469 258.695312 60.929688 C 259.175781 60.957031 259.730469 60.980469 260.460938 60.980469 C 261.167969 60.980469 261.695312 60.957031 262.074219 60.929688 C 262.199219 60.980469 262.199219 61.207031 262.125 61.308594 L 261.921875 61.335938 C 261.394531 61.410156 261.292969 61.484375 261.292969 61.613281 C 261.292969 61.761719 261.695312 62.621094 261.773438 62.773438 C 262.328125 63.882812 262.882812 65.09375 263.488281 66.125 C 263.941406 65.320312 264.445312 64.4375 264.898438 63.578125 C 265.328125 62.796875 265.882812 61.761719 265.882812 61.585938 C 265.882812 61.484375 265.605469 61.386719 265.25 61.335938 L 264.972656 61.308594 C 264.875 61.207031 264.875 60.980469 265 60.929688 C 265.527344 60.957031 265.984375 60.980469 266.460938 60.980469 C 266.941406 60.980469 267.34375 60.957031 267.875 60.929688 C 268 61.007812 268 61.207031 267.898438 61.308594 L 267.46875 61.386719 C 266.6875 61.511719 266.234375 62.46875 265.476562 63.78125 L 264.519531 65.417969 C 263.863281 66.578125 263.8125 66.707031 263.8125 67.867188 L 263.8125 68.671875 Z M 263.789062 68.671875 " fill-opacity="1" fill-rule="nonzero"/><path fill="#ffffff" d="M 61.21875 28.328125 C 61.167969 28.253906 58.824219 27.09375 58.824219 27.09375 C 55.847656 26.464844 50.933594 26.742188 47.503906 28.003906 C 44.074219 26.742188 39.15625 26.464844 36.183594 27.09375 C 36.183594 27.09375 33.835938 28.253906 33.785156 28.328125 L 30.128906 36.347656 C 30.003906 36.574219 30.207031 36.75 30.40625 36.726562 C 35.929688 35.667969 42.285156 35.363281 47.476562 35.363281 C 52.671875 35.363281 59.027344 35.691406 64.546875 36.726562 C 64.75 36.777344 64.953125 36.574219 64.824219 36.347656 Z M 46.621094 34.105469 C 42.6875 33.953125 35.878906 33.953125 32.476562 35.164062 L 34.894531 29.085938 L 36.558594 28.203125 L 34.796875 33.195312 C 38.351562 32.515625 42.285156 32.261719 46.644531 33.699219 Z M 48.285156 34.105469 L 48.285156 33.726562 C 52.648438 32.289062 56.582031 32.539062 60.136719 33.222656 L 58.371094 28.230469 L 60.035156 29.113281 L 62.457031 35.1875 C 59.203125 33.953125 52.394531 33.953125 48.285156 34.105469 " fill-opacity="1" fill-rule="nonzero"/><g clip-path="url(#d199890125)"><path fill="#ffffff" d="M 70.042969 25.328125 L 69.867188 25.277344 C 62.554688 23.714844 55.015625 22.910156 47.503906 22.910156 C 39.988281 22.910156 32.449219 23.714844 25.113281 25.277344 L 25.039062 25.304688 L 24.960938 25.328125 C 23.777344 25.605469 22.917969 26.714844 22.917969 28.003906 L 22.917969 31.984375 C 22.917969 60.730469 40.695312 72.402344 46.167969 75.277344 C 46.59375 75.503906 47.050781 75.632812 47.503906 75.632812 C 47.957031 75.632812 48.410156 75.503906 48.839844 75.277344 C 54.285156 72.402344 72.0625 60.730469 72.0625 31.984375 L 72.0625 28.003906 C 72.0625 26.742188 71.230469 25.65625 70.042969 25.328125 M 46.496094 73.613281 C 40.492188 70.285156 28.417969 60.882812 25.289062 41.59375 L 25.441406 41.566406 C 32.324219 40.105469 39.382812 39.347656 46.496094 39.296875 Z M 65.507812 55.132812 C 65.507812 55.132812 65.480469 55.132812 65.507812 55.132812 C 64.21875 57.804688 62.78125 60.148438 61.246094 62.191406 C 59.859375 64.058594 58.421875 65.722656 56.984375 67.132812 L 56.984375 59.367188 L 52.722656 56.542969 L 52.722656 70.839844 C 51.132812 72.027344 49.695312 72.957031 48.460938 73.613281 L 48.460938 53.695312 L 52.722656 56.519531 L 52.722656 46.636719 L 56.984375 49.460938 L 56.984375 39.703125 C 58.394531 39.828125 59.832031 39.980469 61.246094 40.15625 L 61.246094 52.28125 L 65.507812 55.132812 L 65.507812 40.8125 C 66.867188 41.039062 68.230469 41.289062 69.566406 41.566406 L 69.714844 41.59375 C 68.859375 46.8125 67.347656 51.273438 65.507812 55.132812 M 48.488281 43.8125 L 48.488281 39.296875 C 49.898438 39.296875 51.308594 39.347656 52.746094 39.425781 L 52.746094 46.660156 Z M 70.449219 31.960938 C 70.449219 34.582031 70.296875 37.054688 69.992188 39.398438 C 55.242188 36.273438 39.738281 36.273438 24.960938 39.398438 C 24.683594 37.054688 24.507812 34.582031 24.507812 31.960938 L 24.507812 27.976562 C 24.507812 27.449219 24.886719 26.992188 25.390625 26.867188 L 25.414062 26.867188 C 32.527344 25.355469 39.914062 24.546875 47.476562 24.546875 C 55.042969 24.546875 62.40625 25.355469 69.515625 26.867188 L 69.539062 26.867188 C 70.070312 26.96875 70.449219 27.449219 70.449219 28.003906 Z M 70.449219 31.960938 " fill-opacity="1" fill-rule="nonzero"/></g><path fill="#ffffff" d="M 61.246094 52.28125 L 56.984375 49.460938 L 56.984375 59.367188 L 61.246094 62.191406 Z M 61.246094 52.28125 " fill-opacity="1" fill-rule="nonzero"/><path fill="#ffffff" d="M 37.390625 58.535156 C 41.679688 58.535156 45.183594 55.058594 45.183594 50.746094 C 45.183594 46.457031 41.703125 42.953125 37.390625 42.953125 C 33.082031 42.953125 29.601562 46.433594 29.601562 50.746094 C 29.601562 55.03125 33.105469 58.535156 37.390625 58.535156 M 38.804688 57.402344 C 39.410156 56.746094 40.117188 55.8125 40.671875 54.578125 C 41.425781 54.730469 42.058594 54.929688 42.585938 55.132812 C 41.628906 56.265625 40.316406 57.074219 38.804688 57.402344 M 43.167969 54.324219 C 42.585938 54.097656 41.878906 53.847656 40.996094 53.644531 C 41.226562 52.914062 41.375 52.132812 41.425781 51.25 L 44.148438 51.25 C 44.074219 52.359375 43.722656 53.417969 43.167969 54.324219 M 43.167969 47.191406 C 43.722656 48.097656 44.074219 49.132812 44.175781 50.265625 L 41.453125 50.265625 C 41.402344 49.382812 41.25 48.578125 41.023438 47.871094 C 41.878906 47.667969 42.585938 47.417969 43.167969 47.191406 M 42.585938 46.359375 C 42.058594 46.558594 41.425781 46.761719 40.671875 46.914062 C 40.140625 45.675781 39.410156 44.746094 38.804688 44.089844 C 40.316406 44.417969 41.628906 45.222656 42.585938 46.359375 M 37.871094 44.542969 C 38.402344 45.097656 39.105469 45.953125 39.636719 47.089844 C 39.082031 47.164062 38.5 47.214844 37.871094 47.242188 Z M 37.871094 48.222656 C 38.652344 48.199219 39.359375 48.121094 40.015625 48.023438 C 40.242188 48.675781 40.394531 49.433594 40.441406 50.242188 L 37.871094 50.242188 Z M 37.871094 51.25 L 40.441406 51.25 C 40.394531 52.054688 40.242188 52.8125 40.015625 53.46875 C 39.359375 53.367188 38.652344 53.292969 37.871094 53.265625 Z M 37.871094 54.25 C 38.5 54.273438 39.105469 54.324219 39.636719 54.402344 C 39.105469 55.535156 38.402344 56.394531 37.871094 56.949219 Z M 32.199219 55.132812 C 32.726562 54.929688 33.359375 54.730469 34.113281 54.578125 C 34.644531 55.8125 35.375 56.769531 35.980469 57.402344 C 34.46875 57.074219 33.15625 56.265625 32.199219 55.132812 M 36.886719 56.921875 C 36.359375 56.367188 35.652344 55.511719 35.125 54.375 C 35.679688 54.300781 36.257812 54.25 36.886719 54.222656 Z M 36.886719 53.265625 C 36.105469 53.292969 35.402344 53.34375 34.746094 53.46875 C 34.519531 52.8125 34.367188 52.054688 34.316406 51.25 L 36.886719 51.25 Z M 36.886719 50.265625 L 34.316406 50.265625 C 34.367188 49.460938 34.519531 48.703125 34.746094 48.046875 C 35.402344 48.148438 36.105469 48.222656 36.886719 48.25 Z M 36.886719 47.242188 C 36.257812 47.214844 35.679688 47.164062 35.125 47.089844 C 35.652344 45.953125 36.359375 45.097656 36.886719 44.542969 Z M 35.980469 44.089844 C 35.375 44.746094 34.667969 45.675781 34.113281 46.914062 C 33.359375 46.761719 32.726562 46.558594 32.199219 46.359375 C 33.15625 45.222656 34.46875 44.417969 35.980469 44.089844 M 31.617188 47.191406 C 32.199219 47.417969 32.902344 47.667969 33.785156 47.871094 C 33.558594 48.601562 33.410156 49.382812 33.359375 50.265625 L 30.636719 50.265625 C 30.683594 49.132812 31.039062 48.097656 31.617188 47.191406 M 30.609375 51.25 L 33.332031 51.25 C 33.382812 52.132812 33.535156 52.9375 33.761719 53.644531 C 32.902344 53.847656 32.171875 54.074219 31.59375 54.324219 C 31.039062 53.417969 30.683594 52.359375 30.609375 51.25 " fill-opacity="1" fill-rule="nonzero"/><g clip-path="url(#0fa18aac67)"><path fill="#ffffff" d="M 86.105469 33.828125 C 86.105469 29.96875 85.753906 29.566406 83.710938 29.390625 L 82.851562 29.3125 C 82.652344 29.160156 82.703125 28.558594 82.929688 28.457031 C 84.945312 28.53125 86.132812 28.558594 87.59375 28.558594 C 88.980469 28.558594 90.164062 28.53125 91.550781 28.457031 C 91.753906 28.558594 91.828125 29.1875 91.628906 29.3125 L 91.097656 29.390625 C 89.054688 29.667969 88.980469 30.144531 88.980469 33.828125 L 88.980469 46.710938 C 88.980469 49.460938 88.828125 51.855469 88.171875 53.441406 C 87.011719 56.214844 84.566406 58.433594 81.339844 58.433594 C 80.9375 58.433594 79.851562 58.410156 79.851562 57.703125 C 79.851562 57.125 80.382812 56.117188 81.113281 56.117188 C 81.542969 56.117188 81.945312 56.191406 82.398438 56.316406 C 82.878906 56.445312 83.382812 56.570312 83.863281 56.570312 C 84.59375 56.570312 85.023438 56.140625 85.25 55.660156 C 86.054688 54.023438 86.15625 48.828125 86.15625 46.9375 L 86.15625 33.828125 Z M 86.105469 33.828125 " fill-opacity="1" fill-rule="nonzero"/></g><path fill="#ffffff" d="M 91.5 41.996094 C 91.5 36.144531 95.890625 31.65625 101.941406 31.65625 C 108.699219 31.65625 112.101562 36.550781 112.101562 41.71875 C 112.101562 47.644531 107.589844 51.929688 101.941406 51.929688 C 95.433594 51.929688 91.5 47.265625 91.5 41.996094 M 109.175781 42.625 C 109.175781 37.785156 107.035156 32.566406 101.4375 32.566406 C 98.386719 32.566406 94.425781 34.660156 94.425781 41.0625 C 94.425781 45.398438 96.542969 51.023438 102.320312 51.023438 C 105.847656 51.023438 109.175781 48.375 109.175781 42.625 " fill-opacity="1" fill-rule="nonzero"/><path fill="#ffffff" d="M 118.757812 41.996094 C 117.347656 41.996094 117.296875 42.046875 117.296875 42.929688 L 117.296875 47.0625 C 117.296875 50.140625 117.445312 50.542969 119.085938 50.71875 L 119.941406 50.820312 C 120.121094 50.945312 120.070312 51.476562 119.894531 51.550781 C 118.304688 51.5 117.320312 51.476562 116.160156 51.476562 C 114.898438 51.476562 113.917969 51.527344 112.757812 51.550781 C 112.582031 51.476562 112.53125 50.996094 112.707031 50.820312 L 113.210938 50.71875 C 114.851562 50.417969 114.898438 50.140625 114.898438 47.0625 L 114.898438 36.523438 C 114.898438 33.449219 114.699219 32.945312 113.160156 32.84375 L 112.402344 32.792969 C 112.226562 32.667969 112.277344 32.136719 112.453125 32.0625 C 113.890625 32.085938 114.875 32.136719 116.136719 32.136719 C 117.269531 32.136719 118.277344 32.113281 119.539062 32.0625 C 119.714844 32.136719 119.765625 32.667969 119.589844 32.792969 L 119.035156 32.84375 C 117.347656 33.019531 117.269531 33.449219 117.269531 36.523438 L 117.269531 39.902344 C 117.269531 40.8125 117.320312 40.835938 118.734375 40.835938 L 127.105469 40.835938 C 128.515625 40.835938 128.566406 40.8125 128.566406 39.902344 L 128.566406 36.523438 C 128.566406 33.449219 128.515625 33.019531 126.777344 32.84375 L 126.222656 32.792969 C 126.042969 32.667969 126.09375 32.136719 126.273438 32.0625 C 127.609375 32.113281 128.617188 32.136719 129.828125 32.136719 C 130.960938 32.136719 131.96875 32.113281 133.28125 32.0625 C 133.457031 32.136719 133.507812 32.667969 133.332031 32.792969 L 132.726562 32.84375 C 131.039062 33.019531 130.960938 33.449219 130.960938 36.523438 L 130.960938 47.0625 C 130.960938 50.140625 131.011719 50.519531 132.726562 50.71875 L 133.433594 50.820312 C 133.609375 50.945312 133.558594 51.476562 133.382812 51.550781 C 131.96875 51.5 130.988281 51.476562 129.851562 51.476562 C 128.640625 51.476562 127.609375 51.5 126.296875 51.550781 C 126.121094 51.476562 126.070312 50.996094 126.246094 50.820312 L 126.800781 50.71875 C 128.589844 50.417969 128.589844 50.140625 128.589844 47.0625 L 128.589844 42.929688 C 128.589844 42.046875 128.539062 41.996094 127.128906 41.996094 Z M 118.757812 41.996094 " fill-opacity="1" fill-rule="nonzero"/><path fill="#ffffff" d="M 153.476562 46.484375 C 153.476562 47.367188 153.476562 50.847656 153.554688 51.601562 C 153.503906 51.777344 153.328125 51.929688 153 51.929688 C 152.644531 51.425781 151.789062 50.417969 149.242188 47.519531 L 142.433594 39.777344 C 141.652344 38.871094 139.660156 36.472656 139.03125 35.820312 L 138.980469 35.820312 C 138.855469 36.171875 138.828125 36.851562 138.828125 37.710938 L 138.828125 44.089844 C 138.828125 45.476562 138.855469 49.28125 139.359375 50.140625 C 139.535156 50.46875 140.113281 50.644531 140.84375 50.695312 L 141.753906 50.796875 C 141.929688 51.023438 141.90625 51.375 141.703125 51.527344 C 140.390625 51.476562 139.359375 51.449219 138.273438 51.449219 C 137.039062 51.449219 136.257812 51.476562 135.222656 51.527344 C 135.019531 51.375 134.996094 50.972656 135.171875 50.796875 L 135.953125 50.695312 C 136.632812 50.617188 137.089844 50.441406 137.238281 50.113281 C 137.644531 49.054688 137.617188 45.476562 137.617188 44.089844 L 137.617188 35.617188 C 137.617188 34.785156 137.59375 34.179688 136.960938 33.5 C 136.558594 33.09375 135.851562 32.894531 135.148438 32.792969 L 134.644531 32.742188 C 134.464844 32.566406 134.464844 32.136719 134.691406 32.011719 C 135.929688 32.085938 137.464844 32.085938 137.996094 32.085938 C 138.476562 32.085938 138.953125 32.0625 139.332031 32.011719 C 139.914062 33.5 143.367188 37.382812 144.351562 38.464844 L 147.199219 41.667969 C 149.214844 43.910156 150.652344 45.578125 152.039062 46.964844 L 152.089844 46.964844 C 152.21875 46.8125 152.21875 46.359375 152.21875 45.726562 L 152.21875 39.449219 C 152.21875 38.0625 152.191406 34.253906 151.636719 33.371094 C 151.460938 33.121094 150.980469 32.945312 149.820312 32.792969 L 149.316406 32.742188 C 149.117188 32.566406 149.140625 32.085938 149.367188 32.011719 C 150.703125 32.0625 151.710938 32.085938 152.820312 32.085938 C 154.082031 32.085938 154.839844 32.0625 155.847656 32.011719 C 156.074219 32.164062 156.074219 32.566406 155.898438 32.742188 L 155.570312 32.816406 C 154.636719 32.96875 154.058594 33.195312 153.929688 33.421875 C 153.425781 34.480469 153.503906 38.113281 153.503906 39.449219 L 153.503906 46.484375 Z M 153.476562 46.484375 " fill-opacity="1" fill-rule="nonzero"/><path fill="#ffffff" d="M 161.21875 51.929688 C 158.746094 51.929688 157.210938 51.171875 156.65625 50.847656 C 156.300781 50.191406 155.921875 48.121094 155.871094 46.734375 C 156.023438 46.535156 156.453125 46.457031 156.578125 46.660156 C 157.007812 48.148438 158.21875 51.023438 161.621094 51.023438 C 164.09375 51.023438 165.277344 49.410156 165.277344 47.644531 C 165.277344 46.359375 165.027344 44.921875 162.882812 43.535156 L 160.109375 41.71875 C 158.648438 40.761719 156.957031 39.070312 156.957031 36.675781 C 156.957031 33.902344 159.125 31.632812 162.933594 31.632812 C 163.839844 31.632812 164.898438 31.808594 165.65625 32.011719 C 166.035156 32.136719 166.4375 32.1875 166.691406 32.1875 C 166.96875 32.894531 167.21875 34.53125 167.21875 35.769531 C 167.09375 35.945312 166.640625 36.019531 166.488281 35.867188 C 166.109375 34.457031 165.328125 32.566406 162.503906 32.566406 C 159.628906 32.566406 159.023438 34.480469 159.023438 35.820312 C 159.023438 37.507812 160.4375 38.742188 161.519531 39.425781 L 163.867188 40.886719 C 165.707031 42.019531 167.523438 43.734375 167.523438 46.507812 C 167.472656 49.738281 165.027344 51.929688 161.21875 51.929688 " fill-opacity="1" fill-rule="nonzero"/><g clip-path="url(#6153bad261)"><path fill="#ffffff" d="M 184.84375 40.257812 C 183.179688 40.257812 183.105469 40.332031 183.105469 41.367188 L 183.105469 46.257812 C 183.105469 49.914062 183.28125 50.390625 185.222656 50.59375 L 186.230469 50.695312 C 186.433594 50.820312 186.355469 51.449219 186.15625 51.550781 C 184.289062 51.476562 183.105469 51.449219 181.742188 51.449219 C 180.253906 51.449219 179.070312 51.527344 177.707031 51.550781 C 177.507812 51.449219 177.429688 50.894531 177.632812 50.695312 L 178.210938 50.59375 C 180.152344 50.242188 180.230469 49.886719 180.230469 46.257812 L 180.230469 33.75 C 180.230469 30.09375 179.976562 29.515625 178.1875 29.363281 L 177.28125 29.289062 C 177.078125 29.160156 177.152344 28.53125 177.355469 28.429688 C 179.042969 28.457031 180.230469 28.53125 181.742188 28.53125 C 183.105469 28.53125 184.289062 28.507812 185.777344 28.429688 C 185.976562 28.53125 186.054688 29.160156 185.851562 29.289062 L 185.195312 29.363281 C 183.179688 29.566406 183.105469 30.09375 183.105469 33.75 L 183.105469 37.734375 C 183.105469 38.820312 183.179688 38.84375 184.84375 38.84375 L 194.777344 38.84375 C 196.441406 38.84375 196.519531 38.820312 196.519531 37.734375 L 196.519531 33.75 C 196.519531 30.09375 196.441406 29.589844 194.398438 29.363281 L 193.746094 29.289062 C 193.542969 29.160156 193.617188 28.53125 193.820312 28.429688 C 195.410156 28.507812 196.59375 28.53125 198.03125 28.53125 C 199.390625 28.53125 200.578125 28.507812 202.140625 28.429688 C 202.34375 28.53125 202.417969 29.160156 202.214844 29.289062 L 201.484375 29.363281 C 199.46875 29.566406 199.390625 30.09375 199.390625 33.75 L 199.390625 46.257812 C 199.390625 49.914062 199.46875 50.367188 201.484375 50.59375 L 202.316406 50.695312 C 202.519531 50.820312 202.46875 51.449219 202.242188 51.550781 C 200.578125 51.476562 199.390625 51.449219 198.03125 51.449219 C 196.617188 51.449219 195.359375 51.476562 193.820312 51.550781 C 193.617188 51.449219 193.542969 50.894531 193.746094 50.695312 L 194.398438 50.59375 C 196.519531 50.242188 196.519531 49.886719 196.519531 46.257812 L 196.519531 41.367188 C 196.519531 40.332031 196.441406 40.257812 194.777344 40.257812 Z M 184.84375 40.257812 " fill-opacity="1" fill-rule="nonzero"/></g><path fill="#ffffff" d="M 202.066406 41.996094 C 202.066406 36.144531 206.453125 31.65625 212.503906 31.65625 C 219.261719 31.65625 222.664062 36.550781 222.664062 41.71875 C 222.664062 47.644531 218.152344 51.929688 212.503906 51.929688 C 206 51.929688 202.066406 47.265625 202.066406 41.996094 M 219.738281 42.625 C 219.738281 37.785156 217.597656 32.566406 212 32.566406 C 208.949219 32.566406 204.988281 34.660156 204.988281 41.0625 C 204.988281 45.398438 207.109375 51.023438 212.882812 51.023438 C 216.386719 51.023438 219.738281 48.375 219.738281 42.625 " fill-opacity="1" fill-rule="nonzero"/><path fill="#ffffff" d="M 227.960938 47.0625 C 227.960938 50.140625 228.011719 50.519531 229.902344 50.71875 L 230.683594 50.796875 C 230.859375 50.945312 230.808594 51.449219 230.632812 51.527344 C 228.96875 51.476562 227.984375 51.449219 226.824219 51.449219 C 225.589844 51.449219 224.53125 51.476562 223.246094 51.527344 C 223.066406 51.449219 223.019531 50.972656 223.195312 50.796875 L 223.800781 50.71875 C 225.488281 50.492188 225.566406 50.140625 225.566406 47.0625 L 225.566406 36.246094 C 225.566406 33.75 225.515625 33.246094 224.175781 33.121094 L 223.117188 32.996094 C 222.917969 32.816406 222.941406 32.390625 223.167969 32.261719 C 224.734375 32.0625 226.546875 32.035156 228.96875 32.035156 C 231.390625 32.035156 233.203125 32.363281 234.589844 33.222656 C 235.925781 34.078125 236.9375 35.589844 236.9375 37.609375 C 236.9375 40.304688 235.273438 41.644531 234.011719 42.273438 C 232.726562 42.878906 231.160156 43.15625 229.976562 43.15625 C 229.773438 43.078125 229.773438 42.625 229.953125 42.574219 C 233.101562 41.996094 234.261719 40.207031 234.261719 37.660156 C 234.261719 34.808594 232.597656 32.96875 229.546875 32.96875 C 227.984375 32.96875 227.960938 33.09375 227.960938 34.027344 Z M 227.960938 47.0625 " fill-opacity="1" fill-rule="nonzero"/><path fill="#ffffff" d="M 240.164062 36.523438 C 240.164062 33.449219 240.113281 32.96875 238.398438 32.84375 L 237.667969 32.792969 C 237.492188 32.667969 237.542969 32.136719 237.71875 32.0625 C 239.15625 32.113281 240.085938 32.136719 241.398438 32.136719 C 242.535156 32.136719 243.542969 32.113281 244.804688 32.0625 C 244.980469 32.136719 245.03125 32.667969 244.851562 32.792969 L 244.324219 32.816406 C 242.632812 32.996094 242.558594 33.421875 242.558594 36.5 L 242.558594 39.878906 C 242.558594 40.433594 242.609375 40.988281 242.9375 40.988281 C 243.1875 40.988281 243.542969 40.8125 243.742188 40.660156 C 244.148438 40.304688 244.929688 39.550781 245.230469 39.246094 L 248.382812 36.121094 C 248.9375 35.589844 250.375 34.105469 250.675781 33.699219 C 250.828125 33.5 250.878906 33.347656 250.878906 33.222656 C 250.878906 33.09375 250.753906 33.019531 250.375 32.917969 L 249.59375 32.742188 C 249.390625 32.539062 249.417969 32.164062 249.644531 32.011719 C 250.675781 32.0625 251.835938 32.085938 252.871094 32.085938 C 253.90625 32.085938 254.886719 32.0625 255.769531 32.011719 C 255.972656 32.164062 255.996094 32.566406 255.820312 32.742188 C 255.066406 32.792969 253.929688 33.09375 253.097656 33.574219 C 252.265625 34.054688 250.628906 35.414062 248.988281 36.976562 L 246.339844 39.472656 C 245.9375 39.878906 245.660156 40.15625 245.660156 40.382812 C 245.660156 40.582031 245.835938 40.8125 246.214844 41.289062 C 248.988281 44.492188 251.257812 47.113281 253.527344 49.535156 C 254.234375 50.242188 254.761719 50.617188 255.769531 50.746094 L 256.324219 50.820312 C 256.527344 50.972656 256.476562 51.476562 256.273438 51.550781 C 255.519531 51.5 254.710938 51.449219 253.324219 51.449219 C 252.113281 51.449219 251.105469 51.476562 249.746094 51.550781 C 249.542969 51.5 249.441406 50.996094 249.617188 50.820312 L 250.300781 50.695312 C 250.703125 50.644531 251.003906 50.542969 251.003906 50.390625 C 251.003906 50.214844 250.804688 49.988281 250.601562 49.710938 C 250.046875 49.003906 249.289062 48.222656 248.179688 46.964844 L 245.835938 44.316406 C 244.171875 42.449219 243.695312 41.84375 242.988281 41.84375 C 242.558594 41.84375 242.484375 42.222656 242.484375 43.257812 L 242.484375 47.039062 C 242.484375 50.113281 242.535156 50.519531 244.171875 50.695312 L 244.953125 50.769531 C 245.128906 50.894531 245.082031 51.425781 244.902344 51.5 C 243.464844 51.449219 242.484375 51.402344 241.324219 51.402344 C 240.113281 51.402344 239.128906 51.425781 237.917969 51.5 C 237.742188 51.402344 237.691406 50.972656 237.867188 50.769531 L 238.449219 50.695312 C 240.011719 50.46875 240.0625 50.113281 240.0625 47.039062 L 240.0625 36.523438 Z M 240.164062 36.523438 " fill-opacity="1" fill-rule="nonzero"/><path fill="#ffffff" d="M 260.257812 36.574219 C 260.257812 33.472656 260.207031 32.96875 258.46875 32.816406 L 257.738281 32.765625 C 257.5625 32.640625 257.613281 32.113281 257.789062 32.035156 C 259.25 32.085938 260.257812 32.136719 261.46875 32.136719 C 262.652344 32.136719 263.636719 32.113281 265.101562 32.035156 C 265.277344 32.136719 265.328125 32.640625 265.152344 32.765625 L 264.417969 32.816406 C 262.679688 32.96875 262.628906 33.472656 262.628906 36.574219 L 262.628906 47.011719 C 262.628906 50.113281 262.679688 50.519531 264.417969 50.746094 L 265.152344 50.820312 C 265.328125 50.945312 265.277344 51.476562 265.101562 51.550781 C 263.636719 51.5 262.628906 51.449219 261.46875 51.449219 C 260.234375 51.449219 259.351562 51.476562 257.890625 51.550781 C 257.710938 51.449219 257.660156 50.996094 257.839844 50.820312 L 258.445312 50.746094 C 260.183594 50.542969 260.234375 50.140625 260.234375 47.011719 L 260.234375 36.574219 Z M 260.257812 36.574219 " fill-opacity="1" fill-rule="nonzero"/><path fill="#ffffff" d="M 285.597656 46.484375 C 285.597656 47.367188 285.597656 50.847656 285.699219 51.601562 C 285.648438 51.777344 285.472656 51.929688 285.144531 51.929688 C 284.792969 51.425781 283.933594 50.417969 281.386719 47.519531 L 274.582031 39.777344 C 273.800781 38.871094 271.808594 36.472656 271.175781 35.820312 L 271.125 35.820312 C 271 36.171875 270.976562 36.851562 270.976562 37.710938 L 270.976562 44.089844 C 270.976562 45.476562 271 49.28125 271.503906 50.140625 C 271.679688 50.46875 272.261719 50.644531 272.992188 50.695312 L 273.898438 50.796875 C 274.078125 51.023438 274.050781 51.375 273.847656 51.527344 C 272.539062 51.476562 271.503906 51.449219 270.421875 51.449219 C 269.183594 51.449219 268.402344 51.476562 267.371094 51.527344 C 267.167969 51.375 267.140625 50.972656 267.320312 50.796875 L 268.101562 50.695312 C 268.78125 50.617188 269.234375 50.441406 269.386719 50.113281 C 269.789062 49.054688 269.765625 45.476562 269.765625 44.089844 L 269.765625 35.617188 C 269.765625 34.785156 269.738281 34.179688 269.109375 33.5 C 268.707031 33.09375 268 32.894531 267.292969 32.792969 L 266.789062 32.742188 C 266.613281 32.566406 266.613281 32.136719 266.839844 32.011719 C 268.074219 32.085938 269.613281 32.085938 270.144531 32.085938 C 270.621094 32.085938 271.101562 32.0625 271.480469 32.011719 C 272.058594 33.5 275.511719 37.382812 276.496094 38.464844 L 279.347656 41.667969 C 281.363281 43.910156 282.800781 45.578125 284.1875 46.964844 L 284.238281 46.964844 C 284.363281 46.8125 284.363281 46.359375 284.363281 45.726562 L 284.363281 39.449219 C 284.363281 38.0625 284.339844 34.253906 283.785156 33.371094 C 283.605469 33.121094 283.128906 32.945312 281.96875 32.792969 L 281.464844 32.742188 C 281.261719 32.566406 281.289062 32.085938 281.515625 32.011719 C 282.851562 32.0625 283.859375 32.085938 284.96875 32.085938 C 286.230469 32.085938 286.984375 32.0625 287.996094 32.011719 C 288.222656 32.164062 288.222656 32.566406 288.042969 32.742188 L 287.640625 32.792969 C 286.707031 32.945312 286.128906 33.171875 286.003906 33.398438 C 285.5 34.457031 285.574219 38.085938 285.574219 39.425781 L 285.574219 46.484375 Z M 285.597656 46.484375 " fill-opacity="1" fill-rule="nonzero"/><g clip-path="url(#edecffef0b)"><path fill="#ffffff" d="M 293.289062 51.929688 C 290.816406 51.929688 289.28125 51.171875 288.726562 50.847656 C 288.371094 50.191406 287.996094 48.121094 287.945312 46.734375 C 288.09375 46.535156 288.523438 46.457031 288.648438 46.660156 C 289.078125 48.148438 290.289062 51.023438 293.691406 51.023438 C 296.164062 51.023438 297.347656 49.410156 297.347656 47.644531 C 297.347656 46.359375 297.070312 44.921875 294.953125 43.535156 L 292.179688 41.71875 C 290.71875 40.761719 289.003906 39.070312 289.003906 36.675781 C 289.003906 33.902344 291.171875 31.632812 294.980469 31.632812 C 295.886719 31.632812 296.945312 31.808594 297.703125 32.011719 C 298.078125 32.136719 298.484375 32.1875 298.734375 32.1875 C 299.011719 32.894531 299.265625 34.53125 299.265625 35.769531 C 299.140625 35.945312 298.683594 36.019531 298.535156 35.867188 C 298.15625 34.457031 297.375 32.566406 294.550781 32.566406 C 291.675781 32.566406 291.070312 34.480469 291.070312 35.820312 C 291.070312 37.507812 292.484375 38.742188 293.566406 39.425781 L 295.910156 40.886719 C 297.753906 42.019531 299.566406 43.734375 299.566406 46.507812 C 299.542969 49.738281 297.097656 51.929688 293.289062 51.929688 " fill-opacity="1" fill-rule="nonzero"/></g></svg>