<svg width="1512" height="892" viewBox="0 0 1512 892" fill="none" xmlns="http://www.w3.org/2000/svg">
<g style="mix-blend-mode:overlay">
<circle cx="698.281" cy="557.972" r="2.63855" transform="rotate(-76.2652 698.281 557.972)" fill="#F5F1FE" fill-opacity="0.5"/>
</g>
<circle cx="747.719" cy="527.949" r="1.31996" transform="rotate(-76.2652 747.719 527.949)" fill="#F5F1FE" fill-opacity="0.5"/>
<g style="mix-blend-mode:overlay">
<circle cx="655.226" cy="461.883" r="1.31996" transform="rotate(-76.2652 655.226 461.883)" fill="#F5F1FE" fill-opacity="0.5"/>
</g>
<circle cx="889.938" cy="424.084" r="1.31996" transform="rotate(-76.2652 889.938 424.084)" fill="#F5F1FE" fill-opacity="0.5"/>
<g style="mix-blend-mode:overlay">
<circle cx="829.289" cy="460.971" r="1.31996" transform="rotate(-76.2652 829.289 460.971)" fill="#F5F1FE" fill-opacity="0.5"/>
</g>
<g style="mix-blend-mode:overlay">
<circle cx="764.357" cy="465.472" r="2.63855" transform="rotate(-76.2652 764.357 465.472)" fill="#F5F1FE" fill-opacity="0.5"/>
</g>
<circle cx="705.461" cy="456.518" r="2.63855" transform="rotate(-76.2652 705.461 456.518)" fill="#F5F1FE" fill-opacity="0.5"/>
<g style="mix-blend-mode:overlay">
<circle cx="833.728" cy="392.786" r="2.63855" transform="rotate(-76.2652 833.728 392.786)" fill="#F5F1FE" fill-opacity="0.5"/>
</g>
<g style="mix-blend-mode:overlay">
<circle cx="809.239" cy="542.984" r="1.31996" transform="rotate(-76.2652 809.239 542.984)" fill="#F5F1FE" fill-opacity="0.5"/>
</g>
<circle cx="814.024" cy="478.969" r="1.31996" transform="rotate(-76.2652 814.024 478.969)" fill="#F5F1FE" fill-opacity="0.5"/>
<circle cx="767.602" cy="425.111" r="1.31996" transform="rotate(-76.2652 767.602 425.111)" fill="#F5F1FE" fill-opacity="0.5"/>
<g style="mix-blend-mode:overlay">
<circle cx="706.484" cy="474.414" r="1.31996" transform="rotate(-76.2652 706.484 474.414)" fill="#F5F1FE" fill-opacity="0.5"/>
</g>
<g style="mix-blend-mode:overlay">
<circle cx="859.524" cy="545.384" r="2.67506" transform="rotate(-9.69464 859.524 545.384)" fill="#F5F1FE" fill-opacity="0.5"/>
</g>
<g style="mix-blend-mode:overlay">
<circle cx="907.391" cy="579.279" r="1.33822" transform="rotate(-9.69464 907.391 579.279)" fill="#F5F1FE" fill-opacity="0.5"/>
</g>
<g style="mix-blend-mode:overlay">
<circle cx="931.558" cy="466.588" r="1.33822" transform="rotate(-9.69464 931.558 466.588)" fill="#F5F1FE" fill-opacity="0.5"/>
</g>
<g style="mix-blend-mode:overlay">
<circle cx="1051.44" cy="532.953" r="1.33822" transform="rotate(-9.69464 1051.44 532.953)" fill="#F5F1FE" fill-opacity="0.5"/>
</g>
<circle cx="1002.58" cy="628.143" r="1.33822" transform="rotate(-9.69464 1002.58 628.143)" fill="#F5F1FE" fill-opacity="0.5"/>
<g style="mix-blend-mode:overlay">
<circle cx="972.206" cy="569.559" r="2.67506" transform="rotate(-9.69464 972.206 569.559)" fill="#F5F1FE" fill-opacity="0.5"/>
</g>
<g style="mix-blend-mode:overlay">
<circle cx="1021.07" cy="474.364" r="2.67506" transform="rotate(-9.69464 1021.07 474.364)" fill="#F5F1FE" fill-opacity="0.5"/>
</g>
<circle cx="1067.78" cy="604.788" r="2.67506" transform="rotate(-9.69464 1067.78 604.788)" fill="#F5F1FE" fill-opacity="0.5"/>
<circle cx="918.2" cy="642.555" r="1.33822" transform="rotate(-9.69464 918.2 642.555)" fill="#F5F1FE" fill-opacity="0.5"/>
<circle cx="979.675" cy="621.199" r="1.33822" transform="rotate(-9.69464 979.675 621.199)" fill="#F5F1FE" fill-opacity="0.5"/>
<g style="mix-blend-mode:overlay">
<circle cx="998.437" cy="476.875" r="1.33822" transform="rotate(-9.69464 998.437 476.875)" fill="#F5F1FE" fill-opacity="0.5"/>
</g>
<g style="mix-blend-mode:overlay">
<circle cx="940.566" cy="519.328" r="1.33822" transform="rotate(-9.69464 940.566 519.328)" fill="#F5F1FE" fill-opacity="0.5"/>
</g>
<circle cx="1173.72" cy="752.071" r="2.9192" transform="rotate(-71.272 1173.72 752.071)" fill="#F5F1FE" fill-opacity="0.5"/>
<g style="mix-blend-mode:overlay">
<circle cx="1224.57" cy="741.258" r="1.46035" transform="rotate(-71.272 1224.57 741.258)" fill="#F5F1FE" fill-opacity="0.5"/>
</g>
<circle cx="1128.98" cy="659.531" r="1.46035" transform="rotate(-71.272 1128.98 659.531)" fill="#F5F1FE" fill-opacity="0.5"/>
<g style="mix-blend-mode:overlay">
<circle cx="1254.94" cy="578.943" r="1.46035" transform="rotate(-71.272 1254.94 578.943)" fill="#F5F1FE" fill-opacity="0.5"/>
</g>
<g style="mix-blend-mode:overlay">
<circle cx="1320.91" cy="675.283" r="1.46035" transform="rotate(-71.272 1320.91 675.283)" fill="#F5F1FE" fill-opacity="0.5"/>
</g>
<g style="mix-blend-mode:overlay">
<circle cx="1248.91" cy="673.993" r="2.9192" transform="rotate(-71.272 1248.91 673.993)" fill="#F5F1FE" fill-opacity="0.5"/>
</g>
<circle cx="1179.52" cy="557.653" r="2.9192" transform="rotate(-71.272 1179.52 557.653)" fill="#F5F1FE" fill-opacity="0.5"/>
<g style="mix-blend-mode:overlay">
<circle cx="1332.38" cy="600.571" r="2.9192" transform="rotate(-71.272 1332.38 600.571)" fill="#F5F1FE" fill-opacity="0.5"/>
</g>
<g style="mix-blend-mode:overlay">
<circle cx="1290.92" cy="763.752" r="1.46035" transform="rotate(-71.272 1290.92 763.752)" fill="#F5F1FE" fill-opacity="0.5"/>
</g>
<g style="mix-blend-mode:overlay">
<circle cx="1302.36" cy="693.656" r="1.46035" transform="rotate(-71.272 1302.36 693.656)" fill="#F5F1FE" fill-opacity="0.5"/>
</g>
<circle cx="1173.59" cy="600.68" r="1.46035" transform="rotate(-71.272 1173.59 600.68)" fill="#F5F1FE" fill-opacity="0.5"/>
<circle cx="1184.28" cy="678.275" r="1.46035" transform="rotate(-71.272 1184.28 678.275)" fill="#F5F1FE" fill-opacity="0.5"/>
<g style="mix-blend-mode:overlay">
<circle cx="853.613" cy="861.034" r="3.23596" transform="rotate(-130.143 853.613 861.034)" fill="#F5F1FE" fill-opacity="0.5"/>
</g>
<g style="mix-blend-mode:overlay">
<circle cx="859.622" cy="790.359" r="1.61882" transform="rotate(-130.143 859.622 790.359)" fill="#F5F1FE" fill-opacity="0.5"/>
</g>
<g style="mix-blend-mode:overlay">
<circle cx="727.293" cy="834.221" r="1.61882" transform="rotate(-130.143 727.293 834.221)" fill="#F5F1FE" fill-opacity="0.5"/>
</g>
<g style="mix-blend-mode:overlay">
<circle cx="723.004" cy="668.52" r="1.61882" transform="rotate(-130.143 723.004 668.52)" fill="#F5F1FE" fill-opacity="0.5"/>
</g>
<g style="mix-blend-mode:overlay">
<circle cx="852.227" cy="661.129" r="1.61882" transform="rotate(-130.143 852.227 661.129)" fill="#F5F1FE" fill-opacity="0.5"/>
</g>
<g style="mix-blend-mode:overlay">
<circle cx="809.75" cy="728.71" r="3.23596" transform="rotate(-130.143 809.75 728.71)" fill="#F5F1FE" fill-opacity="0.5"/>
</g>
<circle cx="671.882" cy="691.249" r="3.23596" transform="rotate(-130.143 671.882 691.249)" fill="#F5F1FE" fill-opacity="0.5"/>
<g style="mix-blend-mode:overlay">
<circle cx="795.996" cy="654.794" r="3.23596" transform="rotate(-130.143 795.996 654.794)" fill="#F5F1FE" fill-opacity="0.5"/>
</g>
<g style="mix-blend-mode:overlay">
<circle cx="918.985" cy="740.285" r="1.61882" transform="rotate(-130.143 918.985 740.285)" fill="#F5F1FE" fill-opacity="0.5"/>
</g>
<g style="mix-blend-mode:overlay">
<circle cx="859.032" cy="689.264" r="1.61882" transform="rotate(-130.143 859.032 689.264)" fill="#F5F1FE" fill-opacity="0.5"/>
</g>
<circle cx="744.645" cy="736.258" r="1.61882" transform="rotate(-130.143 744.645 736.258)" fill="#F5F1FE" fill-opacity="0.5"/>
<g style="mix-blend-mode:overlay">
<circle cx="776.758" cy="792.502" r="1.61882" transform="rotate(-130.143 776.758 792.502)" fill="#F5F1FE" fill-opacity="0.5"/>
</g>
<g style="mix-blend-mode:overlay">
<circle cx="74.073" cy="289.451" r="3.09714" transform="rotate(-76.2652 74.073 289.451)" fill="#F5F1FE" fill-opacity="0.5"/>
</g>
<circle cx="132.104" cy="254.212" r="1.54937" transform="rotate(-76.2652 132.104 254.212)" fill="#F5F1FE" fill-opacity="0.5"/>
<g style="mix-blend-mode:overlay">
<circle cx="23.5302" cy="176.662" r="1.54937" transform="rotate(-76.2652 23.5302 176.662)" fill="#F5F1FE" fill-opacity="0.5"/>
</g>
<circle cx="299.034" cy="132.292" r="1.54937" transform="rotate(-76.2652 299.034 132.292)" fill="#F5F1FE" fill-opacity="0.5"/>
<g style="mix-blend-mode:overlay">
<circle cx="227.847" cy="175.589" r="1.54937" transform="rotate(-76.2652 227.847 175.589)" fill="#F5F1FE" fill-opacity="0.5"/>
</g>
<g style="mix-blend-mode:overlay">
<circle cx="151.628" cy="180.873" r="3.09714" transform="rotate(-76.2652 151.628 180.873)" fill="#F5F1FE" fill-opacity="0.5"/>
</g>
<circle cx="82.4949" cy="170.365" r="3.09714" transform="rotate(-76.2652 82.4949 170.365)" fill="#F5F1FE" fill-opacity="0.5"/>
<g style="mix-blend-mode:overlay">
<circle cx="233.053" cy="95.5549" r="3.09714" transform="rotate(-76.2652 233.053 95.5549)" fill="#F5F1FE" fill-opacity="0.5"/>
</g>
<g style="mix-blend-mode:overlay">
<circle cx="204.311" cy="271.859" r="1.54937" transform="rotate(-76.2652 204.311 271.859)" fill="#F5F1FE" fill-opacity="0.5"/>
</g>
<circle cx="209.932" cy="196.718" r="1.54937" transform="rotate(-76.2652 209.932 196.718)" fill="#F5F1FE" fill-opacity="0.5"/>
<circle cx="155.44" cy="133.5" r="1.54937" transform="rotate(-76.2652 155.44 133.5)" fill="#F5F1FE" fill-opacity="0.5"/>
<g style="mix-blend-mode:overlay">
<circle cx="83.6981" cy="191.371" r="1.54937" transform="rotate(-76.2652 83.6981 191.371)" fill="#F5F1FE" fill-opacity="0.5"/>
</g>
<g style="mix-blend-mode:overlay">
<circle cx="263.336" cy="274.676" r="3.13999" transform="rotate(-9.69464 263.336 274.676)" fill="#F5F1FE" fill-opacity="0.5"/>
</g>
<g style="mix-blend-mode:overlay">
<circle cx="319.521" cy="314.462" r="1.57081" transform="rotate(-9.69464 319.521 314.462)" fill="#F5F1FE" fill-opacity="0.5"/>
</g>
<g style="mix-blend-mode:overlay">
<circle cx="347.888" cy="182.186" r="1.57081" transform="rotate(-9.69464 347.888 182.186)" fill="#F5F1FE" fill-opacity="0.5"/>
</g>
<g style="mix-blend-mode:overlay">
<circle cx="488.611" cy="260.085" r="1.57081" transform="rotate(-9.69464 488.611 260.085)" fill="#F5F1FE" fill-opacity="0.5"/>
</g>
<circle cx="431.255" cy="371.819" r="1.57081" transform="rotate(-9.69464 431.255 371.819)" fill="#F5F1FE" fill-opacity="0.5"/>
<g style="mix-blend-mode:overlay">
<circle cx="395.605" cy="303.053" r="3.13999" transform="rotate(-9.69464 395.605 303.053)" fill="#F5F1FE" fill-opacity="0.5"/>
</g>
<g style="mix-blend-mode:overlay">
<circle cx="452.969" cy="191.312" r="3.13999" transform="rotate(-9.69464 452.969 191.312)" fill="#F5F1FE" fill-opacity="0.5"/>
</g>
<circle cx="507.797" cy="344.404" r="3.13999" transform="rotate(-9.69464 507.797 344.404)" fill="#F5F1FE" fill-opacity="0.5"/>
<circle cx="332.208" cy="388.737" r="1.57081" transform="rotate(-9.69464 332.208 388.737)" fill="#F5F1FE" fill-opacity="0.5"/>
<circle cx="404.372" cy="363.669" r="1.57081" transform="rotate(-9.69464 404.372 363.669)" fill="#F5F1FE" fill-opacity="0.5"/>
<g style="mix-blend-mode:overlay">
<circle cx="426.396" cy="194.26" r="1.57081" transform="rotate(-9.69464 426.396 194.26)" fill="#F5F1FE" fill-opacity="0.5"/>
</g>
<g style="mix-blend-mode:overlay">
<circle cx="358.462" cy="244.092" r="1.57081" transform="rotate(-9.69464 358.462 244.092)" fill="#F5F1FE" fill-opacity="0.5"/>
</g>
<circle cx="632.139" cy="517.285" r="3.42655" transform="rotate(-71.272 632.139 517.285)" fill="#F5F1FE" fill-opacity="0.5"/>
<g style="mix-blend-mode:overlay">
<circle cx="691.827" cy="504.591" r="1.71416" transform="rotate(-71.272 691.827 504.591)" fill="#F5F1FE" fill-opacity="0.5"/>
</g>
<circle cx="579.628" cy="408.661" r="1.71416" transform="rotate(-71.272 579.628 408.661)" fill="#F5F1FE" fill-opacity="0.5"/>
<g style="mix-blend-mode:overlay">
<circle cx="727.479" cy="314.066" r="1.71416" transform="rotate(-71.272 727.479 314.066)" fill="#F5F1FE" fill-opacity="0.5"/>
</g>
<g style="mix-blend-mode:overlay">
<circle cx="804.913" cy="427.152" r="1.71416" transform="rotate(-71.272 804.913 427.152)" fill="#F5F1FE" fill-opacity="0.5"/>
</g>
<g style="mix-blend-mode:overlay">
<circle cx="720.401" cy="425.636" r="3.42655" transform="rotate(-71.272 720.401 425.636)" fill="#F5F1FE" fill-opacity="0.5"/>
</g>
<circle cx="638.952" cy="289.08" r="3.42655" transform="rotate(-71.272 638.952 289.08)" fill="#F5F1FE" fill-opacity="0.5"/>
<g style="mix-blend-mode:overlay">
<circle cx="818.374" cy="339.455" r="3.42655" transform="rotate(-71.272 818.374 339.455)" fill="#F5F1FE" fill-opacity="0.5"/>
</g>
<g style="mix-blend-mode:overlay">
<circle cx="769.706" cy="530.993" r="1.71416" transform="rotate(-71.272 769.706 530.993)" fill="#F5F1FE" fill-opacity="0.5"/>
</g>
<g style="mix-blend-mode:overlay">
<circle cx="783.14" cy="448.718" r="1.71416" transform="rotate(-71.272 783.14 448.718)" fill="#F5F1FE" fill-opacity="0.5"/>
</g>
<circle cx="631.991" cy="339.583" r="1.71416" transform="rotate(-71.272 631.991 339.583)" fill="#F5F1FE" fill-opacity="0.5"/>
<circle cx="644.53" cy="430.663" r="1.71416" transform="rotate(-71.272 644.53 430.663)" fill="#F5F1FE" fill-opacity="0.5"/>
<g style="mix-blend-mode:overlay">
<circle cx="256.397" cy="645.187" r="3.79837" transform="rotate(-130.143 256.397 645.187)" fill="#F5F1FE" fill-opacity="0.5"/>
</g>
<g style="mix-blend-mode:overlay">
<circle cx="263.451" cy="562.227" r="1.90017" transform="rotate(-130.143 263.451 562.227)" fill="#F5F1FE" fill-opacity="0.5"/>
</g>
<g style="mix-blend-mode:overlay">
<circle cx="108.127" cy="613.713" r="1.90017" transform="rotate(-130.143 108.127 613.713)" fill="#F5F1FE" fill-opacity="0.5"/>
</g>
<g style="mix-blend-mode:overlay">
<circle cx="103.092" cy="419.211" r="1.90017" transform="rotate(-130.143 103.092 419.211)" fill="#F5F1FE" fill-opacity="0.5"/>
</g>
<g style="mix-blend-mode:overlay">
<circle cx="254.775" cy="410.537" r="1.90017" transform="rotate(-130.143 254.775 410.537)" fill="#F5F1FE" fill-opacity="0.5"/>
</g>
<g style="mix-blend-mode:overlay">
<circle cx="204.909" cy="489.864" r="3.79837" transform="rotate(-130.143 204.909 489.864)" fill="#F5F1FE" fill-opacity="0.5"/>
</g>
<circle cx="43.0808" cy="445.892" r="3.79837" transform="rotate(-130.143 43.0808 445.892)" fill="#F5F1FE" fill-opacity="0.5"/>
<g style="mix-blend-mode:overlay">
<circle cx="188.764" cy="403.101" r="3.79837" transform="rotate(-130.143 188.764 403.101)" fill="#F5F1FE" fill-opacity="0.5"/>
</g>
<g style="mix-blend-mode:overlay">
<circle cx="333.135" cy="503.451" r="1.90017" transform="rotate(-130.143 333.135 503.451)" fill="#F5F1FE" fill-opacity="0.5"/>
</g>
<g style="mix-blend-mode:overlay">
<circle cx="262.756" cy="443.561" r="1.90017" transform="rotate(-130.143 262.756 443.561)" fill="#F5F1FE" fill-opacity="0.5"/>
</g>
<circle cx="128.49" cy="498.725" r="1.90017" transform="rotate(-130.143 128.49 498.725)" fill="#F5F1FE" fill-opacity="0.5"/>
<g style="mix-blend-mode:overlay">
<circle cx="166.189" cy="564.742" r="1.90017" transform="rotate(-130.143 166.189 564.742)" fill="#F5F1FE" fill-opacity="0.5"/>
</g>
<g style="mix-blend-mode:overlay">
<circle cx="1.71654" cy="1.71654" r="1.71654" transform="matrix(0.960534 -0.278164 -0.278164 -0.960534 1387.72 620.123)" fill="#F5F1FE" fill-opacity="0.5"/>
</g>
<circle cx="0.858715" cy="0.858715" r="0.858715" transform="matrix(0.960534 -0.278164 -0.278164 -0.960534 1406.47 586.104)" fill="#F5F1FE" fill-opacity="0.5"/>
<g style="mix-blend-mode:overlay">
<circle cx="0.858715" cy="0.858715" r="0.858715" transform="matrix(0.960534 -0.278164 -0.278164 -0.960534 1451.95 644.414)" fill="#F5F1FE" fill-opacity="0.5"/>
</g>
<circle cx="0.858715" cy="0.858715" r="0.858715" transform="matrix(0.960534 -0.278164 -0.278164 -0.960534 1502.62 572.553)" fill="#F5F1FE" fill-opacity="0.5"/>
<g style="mix-blend-mode:overlay">
<circle cx="0.858715" cy="0.858715" r="0.858715" transform="matrix(0.960534 -0.278164 -0.278164 -0.960534 1447.77 531.25)" fill="#F5F1FE" fill-opacity="0.5"/>
</g>
<g style="mix-blend-mode:overlay">
<circle cx="1.71654" cy="1.71654" r="1.71654" transform="matrix(0.960534 -0.278164 -0.278164 -0.960534 1446.04 574.639)" fill="#F5F1FE" fill-opacity="0.5"/>
</g>
<circle cx="1.71654" cy="1.71654" r="1.71654" transform="matrix(0.960534 -0.278164 -0.278164 -0.960534 1500.9 615.943)" fill="#F5F1FE" fill-opacity="0.5"/>
<g style="mix-blend-mode:overlay">
<circle cx="1.71654" cy="1.71654" r="1.71654" transform="matrix(0.960534 -0.278164 -0.278164 -0.960534 1491.38 527.559)" fill="#F5F1FE" fill-opacity="0.5"/>
</g>
<g style="mix-blend-mode:overlay">
<circle cx="0.858715" cy="0.858715" r="0.858715" transform="matrix(0.960534 -0.278164 -0.278164 -0.960534 1395.01 546.529)" fill="#F5F1FE" fill-opacity="0.5"/>
</g>
<circle cx="0.858715" cy="0.858715" r="0.858715" transform="matrix(0.960534 -0.278164 -0.278164 -0.960534 1436.49 541.664)" fill="#F5F1FE" fill-opacity="0.5"/>
<circle cx="0.858715" cy="0.858715" r="0.858715" transform="matrix(0.960534 -0.278164 -0.278164 -0.960534 1487.7 619.766)" fill="#F5F1FE" fill-opacity="0.5"/>
<g style="mix-blend-mode:overlay">
<circle cx="0.858715" cy="0.858715" r="0.858715" transform="matrix(0.960534 -0.278164 -0.278164 -0.960534 1442.4 611.439)" fill="#F5F1FE" fill-opacity="0.5"/>
</g>
<g style="mix-blend-mode:overlay">
<circle cx="1.74029" cy="1.74029" r="1.74029" transform="matrix(0.126698 -0.991941 -0.991941 -0.126698 1394.16 514.793)" fill="#F5F1FE" fill-opacity="0.5"/>
</g>
<g style="mix-blend-mode:overlay">
<circle cx="0.870597" cy="0.870597" r="0.870597" transform="matrix(0.126698 -0.991941 -0.991941 -0.126698 1370.07 483.641)" fill="#F5F1FE" fill-opacity="0.5"/>
</g>
<g style="mix-blend-mode:overlay">
<circle cx="0.870597" cy="0.870597" r="0.870597" transform="matrix(0.126698 -0.991941 -0.991941 -0.126698 1442.65 464.842)" fill="#F5F1FE" fill-opacity="0.5"/>
</g>
<g style="mix-blend-mode:overlay">
<circle cx="0.870597" cy="0.870597" r="0.870597" transform="matrix(0.126698 -0.991941 -0.991941 -0.126698 1396.23 388.738)" fill="#F5F1FE" fill-opacity="0.5"/>
</g>
<circle cx="0.870597" cy="0.870597" r="0.870597" transform="matrix(0.126698 -0.991941 -0.991941 -0.126698 1335.7 423.109)" fill="#F5F1FE" fill-opacity="0.5"/>
<g style="mix-blend-mode:overlay">
<circle cx="1.74029" cy="1.74029" r="1.74029" transform="matrix(0.126698 -0.991941 -0.991941 -0.126698 1375.36 442.215)" fill="#F5F1FE" fill-opacity="0.5"/>
</g>
<g style="mix-blend-mode:overlay">
<circle cx="1.74029" cy="1.74029" r="1.74029" transform="matrix(0.126698 -0.991941 -0.991941 -0.126698 1435.89 407.842)" fill="#F5F1FE" fill-opacity="0.5"/>
</g>
<circle cx="1.74029" cy="1.74029" r="1.74029" transform="matrix(0.126698 -0.991941 -0.991941 -0.126698 1349.84 381.057)" fill="#F5F1FE" fill-opacity="0.5"/>
<circle cx="0.870597" cy="0.870597" r="0.870597" transform="matrix(0.126698 -0.991941 -0.991941 -0.126698 1328.64 478.35)" fill="#F5F1FE" fill-opacity="0.5"/>
<circle cx="0.870597" cy="0.870597" r="0.870597" transform="matrix(0.126698 -0.991941 -0.991941 -0.126698 1340.84 437.805)" fill="#F5F1FE" fill-opacity="0.5"/>
<g style="mix-blend-mode:overlay">
<circle cx="0.870597" cy="0.870597" r="0.870597" transform="matrix(0.126698 -0.991941 -0.991941 -0.126698 1434.13 421.652)" fill="#F5F1FE" fill-opacity="0.5"/>
</g>
<g style="mix-blend-mode:overlay">
<circle cx="0.870597" cy="0.870597" r="0.870597" transform="matrix(0.126698 -0.991941 -0.991941 -0.126698 1408.13 460.434)" fill="#F5F1FE" fill-opacity="0.5"/>
</g>
<circle cx="1.89912" cy="1.89912" r="1.89912" transform="matrix(0.932678 -0.36071 -0.36071 -0.932678 1237.41 321.475)" fill="#F5F1FE" fill-opacity="0.5"/>
<g style="mix-blend-mode:overlay">
<circle cx="0.95005" cy="0.95005" r="0.95005" transform="matrix(0.932678 -0.36071 -0.36071 -0.932678 1254.79 282.174)" fill="#F5F1FE" fill-opacity="0.5"/>
</g>
<circle cx="0.95005" cy="0.95005" r="0.95005" transform="matrix(0.932678 -0.36071 -0.36071 -0.932678 1310.53 342.064)" fill="#F5F1FE" fill-opacity="0.5"/>
<g style="mix-blend-mode:overlay">
<circle cx="0.95005" cy="0.95005" r="0.95005" transform="matrix(0.932678 -0.36071 -0.36071 -0.932678 1359.46 257.982)" fill="#F5F1FE" fill-opacity="0.5"/>
</g>
<g style="mix-blend-mode:overlay">
<circle cx="0.95005" cy="0.95005" r="0.95005" transform="matrix(0.932678 -0.36071 -0.36071 -0.932678 1295.03 217.744)" fill="#F5F1FE" fill-opacity="0.5"/>
</g>
<g style="mix-blend-mode:overlay">
<circle cx="1.89912" cy="1.89912" r="1.89912" transform="matrix(0.932678 -0.36071 -0.36071 -0.932678 1297.3 265.736)" fill="#F5F1FE" fill-opacity="0.5"/>
</g>
<circle cx="1.89912" cy="1.89912" r="1.89912" transform="matrix(0.932678 -0.36071 -0.36071 -0.932678 1374.82 307.646)" fill="#F5F1FE" fill-opacity="0.5"/>
<g style="mix-blend-mode:overlay">
<circle cx="1.89912" cy="1.89912" r="1.89912" transform="matrix(0.932678 -0.36071 -0.36071 -0.932678 1342.73 209.471)" fill="#F5F1FE" fill-opacity="0.5"/>
</g>
<g style="mix-blend-mode:overlay">
<circle cx="0.95005" cy="0.95005" r="0.95005" transform="matrix(0.932678 -0.36071 -0.36071 -0.932678 1238.35 239.668)" fill="#F5F1FE" fill-opacity="0.5"/>
</g>
<g style="mix-blend-mode:overlay">
<circle cx="0.95005" cy="0.95005" r="0.95005" transform="matrix(0.932678 -0.36071 -0.36071 -0.932678 1283.59 230.307)" fill="#F5F1FE" fill-opacity="0.5"/>
</g>
<circle cx="0.95005" cy="0.95005" r="0.95005" transform="matrix(0.932678 -0.36071 -0.36071 -0.932678 1347.56 311.451)" fill="#F5F1FE" fill-opacity="0.5"/>
<circle cx="0.95005" cy="0.95005" r="0.95005" transform="matrix(0.932678 -0.36071 -0.36071 -0.932678 1296.83 306.639)" fill="#F5F1FE" fill-opacity="0.5"/>
<g style="mix-blend-mode:overlay">
<circle cx="2.10519" cy="2.10519" r="2.10519" transform="matrix(0.790938 0.611897 0.611897 -0.790938 1184.7 525.723)" fill="#F5F1FE" fill-opacity="0.5"/>
</g>
<g style="mix-blend-mode:overlay">
<circle cx="1.05314" cy="1.05314" r="1.05314" transform="matrix(0.790938 0.611897 0.611897 -0.790938 1231.95 519.691)" fill="#F5F1FE" fill-opacity="0.5"/>
</g>
<g style="mix-blend-mode:overlay">
<circle cx="1.05314" cy="1.05314" r="1.05314" transform="matrix(0.790938 0.611897 0.611897 -0.790938 1207.07 606.904)" fill="#F5F1FE" fill-opacity="0.5"/>
</g>
<g style="mix-blend-mode:overlay">
<circle cx="1.05314" cy="1.05314" r="1.05314" transform="matrix(0.790938 0.611897 0.611897 -0.790938 1314.89 605.15)" fill="#F5F1FE" fill-opacity="0.5"/>
</g>
<g style="mix-blend-mode:overlay">
<circle cx="1.05314" cy="1.05314" r="1.05314" transform="matrix(0.790938 0.611897 0.611897 -0.790938 1316.15 520.951)" fill="#F5F1FE" fill-opacity="0.5"/>
</g>
<g style="mix-blend-mode:overlay">
<circle cx="2.10519" cy="2.10519" r="2.10519" transform="matrix(0.790938 0.611897 0.611897 -0.790938 1271.91 550.607)" fill="#F5F1FE" fill-opacity="0.5"/>
</g>
<circle cx="2.10519" cy="2.10519" r="2.10519" transform="matrix(0.790938 0.611897 0.611897 -0.790938 1270.65 634.805)" fill="#F5F1FE" fill-opacity="0.5"/>
<g style="mix-blend-mode:overlay">
<circle cx="2.10519" cy="2.10519" r="2.10519" transform="matrix(0.790938 0.611897 0.611897 -0.790938 1320.33 557.52)" fill="#F5F1FE" fill-opacity="0.5"/>
</g>
<g style="mix-blend-mode:overlay">
<circle cx="1.05314" cy="1.05314" r="1.05314" transform="matrix(0.790938 0.611897 0.611897 -0.790938 1262.86 479.73)" fill="#F5F1FE" fill-opacity="0.5"/>
</g>
<g style="mix-blend-mode:overlay">
<circle cx="1.05314" cy="1.05314" r="1.05314" transform="matrix(0.790938 0.611897 0.611897 -0.790938 1297.67 517.305)" fill="#F5F1FE" fill-opacity="0.5"/>
</g>
<circle cx="1.05314" cy="1.05314" r="1.05314" transform="matrix(0.790938 0.611897 0.611897 -0.790938 1260.15 602.453)" fill="#F5F1FE" fill-opacity="0.5"/>
<g style="mix-blend-mode:overlay">
<circle cx="1.05314" cy="1.05314" r="1.05314" transform="matrix(0.790938 0.611897 0.611897 -0.790938 1232.83 573.607)" fill="#F5F1FE" fill-opacity="0.5"/>
</g>
</svg>
